<svg width="69" height="14" viewBox="0 0 69 14" fill="none" xmlns="http://www.w3.org/2000/svg">
  <path
    d="M6.09 4.482H3.556C2.8 4.482 2.226 4.454 1.736 4.398V6.036C2.268 5.98 2.814 5.952 3.556 5.952H6.09V11.02H2.702C1.862 11.02 1.218 10.992 0.7 10.936V12.602C1.26 12.532 1.904 12.504 2.702 12.504H11.382C12.166 12.504 12.782 12.532 13.342 12.602V10.936C12.838 10.992 12.18 11.02 11.382 11.02H7.714V5.952H10.5C11.242 5.952 11.76 5.98 12.306 6.036V4.398C11.774 4.454 11.298 4.482 10.5 4.482H7.714V1.948C7.714 1.318 7.742 0.814 7.812 0.309999H5.992C6.062 0.827999 6.09 1.346 6.09 1.948V4.482ZM21.14 6.064L22.498 5.63V8.598C22.498 9.256 22.484 9.564 22.428 10.04H24.052C23.996 9.606 23.968 9.214 23.968 8.64V5.154L25.578 4.65C25.536 6.008 25.48 6.876 25.41 7.338C25.354 7.632 25.27 7.688 24.92 7.688C24.71 7.688 24.458 7.646 24.136 7.576C24.346 8.01 24.444 8.416 24.514 9.018C24.864 9.046 24.99 9.046 25.172 9.046C26.194 9.046 26.572 8.808 26.754 8.01C26.894 7.408 26.992 6.134 27.062 4.16C27.09 3.404 27.104 3.306 27.132 2.69C26.754 2.858 26.53 2.942 25.984 3.11L23.968 3.74V1.78C23.968 1.262 23.996 0.814 24.052 0.352H22.428C22.484 0.814 22.498 1.108 22.498 1.752V4.188L21.14 4.622V3.096C21.14 2.522 21.168 2.116 21.224 1.668H19.572C19.642 2.13 19.656 2.48 19.656 3.152V5.07L19.53 5.112C19.054 5.266 18.564 5.364 18.172 5.42L18.522 6.946C18.802 6.82 18.956 6.764 19.376 6.624C19.432 6.61 19.53 6.582 19.656 6.54V11.356C19.656 12.588 20.272 12.854 23.1 12.854C27.09 12.854 27.384 12.658 27.552 9.858C27.076 9.774 26.474 9.592 26.026 9.396C26.026 10.348 25.942 10.824 25.774 11.062C25.564 11.356 25.116 11.426 23.45 11.426C22.428 11.426 21.91 11.398 21.546 11.328C21.238 11.272 21.14 11.174 21.14 10.894V6.064ZM16.114 3.782H15.792C15.246 3.782 15.008 3.768 14.7 3.712V5.21C15.036 5.154 15.26 5.14 15.792 5.14H16.114V9.536C15.274 9.858 14.868 9.984 14.448 10.04L14.742 11.65C14.952 11.552 15.078 11.496 15.47 11.342C16.898 10.81 17.654 10.474 18.928 9.788L18.886 8.304C18.256 8.626 18.102 8.696 17.556 8.948V5.14H17.822C18.256 5.14 18.508 5.154 18.802 5.196V3.726C18.578 3.768 18.382 3.782 17.864 3.782H17.556V1.99C17.556 1.206 17.57 0.814 17.64 0.366H16.03C16.086 0.8 16.114 1.248 16.114 1.976V3.782ZM36.092 3.026C36.708 3.082 37.072 3.194 37.506 3.446C38.626 4.118 39.228 5.21 39.228 6.554C39.228 8.052 38.5 9.382 37.282 10.054C36.624 10.432 35.784 10.656 34.496 10.824C34.944 11.412 35.112 11.72 35.35 12.462C36.33 12.294 36.876 12.154 37.548 11.874C39.69 11.006 40.95 9.074 40.95 6.652C40.95 3.502 38.766 1.458 35.406 1.458C33.418 1.458 31.766 2.13 30.59 3.418C29.596 4.51 29.05 5.952 29.05 7.492C29.05 9.746 30.198 11.37 31.794 11.37C32.942 11.37 33.838 10.544 34.636 8.738C35.336 7.156 35.826 5.224 36.092 3.026ZM34.384 3.04C34.216 4.622 33.754 6.512 33.222 7.772C32.718 8.976 32.242 9.564 31.78 9.564C31.164 9.564 30.674 8.654 30.674 7.506C30.674 6.008 31.402 4.566 32.578 3.726C33.152 3.32 33.656 3.124 34.384 3.04ZM48.118 1.22H44.24C43.582 1.22 43.162 1.192 42.714 1.136V2.55C43.176 2.494 43.526 2.48 44.156 2.48H53.816C54.46 2.48 54.81 2.494 55.272 2.55V1.136C54.824 1.192 54.432 1.22 53.802 1.22H49.672V1.038C49.672 0.729999 49.7 0.463999 49.756 0.17H48.034C48.09 0.449999 48.118 0.729999 48.118 1.052V1.22ZM44.842 5.196C44.842 5.672 44.828 5.938 44.8 6.232C45.206 6.19 45.57 6.176 46.116 6.176H51.912C52.528 6.176 52.85 6.19 53.228 6.232C53.2 5.896 53.186 5.742 53.186 5.196V3.992C53.186 3.544 53.2 3.334 53.228 2.97C52.836 3.012 52.542 3.026 51.982 3.026H46.158C45.542 3.026 45.206 3.012 44.8 2.97C44.828 3.306 44.842 3.544 44.842 3.992V5.196ZM46.298 4.16H51.716V5.014H46.298V4.16ZM43.106 11.65C43.106 12.308 43.078 12.896 43.022 13.19H44.674C44.604 12.7 44.59 12.364 44.59 11.65V7.926H53.41V11.412C53.41 11.636 53.34 11.706 53.074 11.706C52.682 11.706 52.08 11.664 51.31 11.58C51.52 12.028 51.59 12.35 51.618 12.98C51.842 12.98 51.842 12.98 52.066 12.994C52.514 13.022 52.584 13.022 52.878 13.022C53.858 13.022 54.278 12.938 54.558 12.686C54.824 12.448 54.894 12.182 54.894 11.482V7.912C54.894 7.408 54.908 7.086 54.95 6.652C54.586 6.694 54.25 6.708 53.578 6.708H44.506C43.904 6.708 43.498 6.694 43.05 6.652C43.092 7.086 43.106 7.45 43.106 7.926V11.65ZM51.982 9.326C51.982 8.906 51.996 8.696 52.024 8.43C51.604 8.458 51.408 8.472 50.876 8.472H47.04C46.522 8.472 46.228 8.458 45.906 8.43C45.934 8.71 45.948 8.948 45.948 9.354V10.978C45.948 11.538 45.934 11.846 45.892 12.112H47.334V11.412H50.862C51.24 11.412 51.758 11.426 52.024 11.454C51.996 11.202 51.982 10.922 51.982 10.516V9.326ZM47.334 9.536H50.638V10.306H47.334V9.536ZM57.848 4.804C58.058 4.776 58.114 4.776 58.464 4.762C60.13 4.734 62.202 4.594 63.434 4.426C64.358 6.148 64.372 6.19 64.946 6.974C64.246 6.694 63.434 6.554 62.524 6.554C60.928 6.554 59.766 6.876 58.954 7.562C58.31 8.108 57.946 8.85 57.946 9.648C57.946 10.348 58.24 11.034 58.772 11.538C59.486 12.224 60.872 12.602 62.664 12.602C64.064 12.602 65.366 12.378 67.102 11.846L66.878 10.054C65.786 10.628 64.148 10.992 62.664 10.992C60.76 10.992 59.724 10.488 59.724 9.578C59.724 8.584 60.844 8.01 62.748 8.01C63.588 8.01 64.33 8.122 64.96 8.332C65.352 8.472 65.576 8.612 65.926 8.934L67.55 8.192C67.06 7.534 66.444 6.624 66.066 5.98C65.926 5.728 65.604 5.14 65.1 4.202C66.262 3.978 66.948 3.838 67.158 3.782C67.634 3.684 67.788 3.642 68.152 3.586L67.956 1.92C67.214 2.2 65.968 2.494 64.526 2.746C64.092 1.724 63.84 0.981999 63.756 0.505999L61.95 0.744C62.02 0.855999 62.622 2.34 62.86 2.956C61.992 3.068 60.13 3.194 59.08 3.194C58.506 3.194 58.142 3.18 57.722 3.124L57.848 4.804Z"
    fill="black" />
</svg>