<svg width="90" height="176" viewBox="0 0 90 176" fill="none" xmlns="http://www.w3.org/2000/svg">
  <path
    d="M78.1515 83.905C77.4771 86.8112 76.5689 89.6582 75.4356 92.4184L73.748 95.138L89.4572 71.5366L89.392 1.07227C89.2175 1.61205 88.9945 2.13496 88.7257 2.63461C88.2839 3.44471 87.3423 9.43366 87.2409 10.4174C87.1395 11.401 86.3936 17.6938 86.2922 18.2363C86.1908 18.7787 84.7567 35.5956 84.7567 35.5956L82.1494 61.7069C82.1494 61.7069 80.824 70.6107 80.6212 71.8331C80.4184 73.0555 78.4485 82.9214 78.1877 83.8689"
    fill="#E1CCC1" />
  <path
    d="M73.48 95.3695L89.3122 71.6885L89.4571 128.772L57.1118 175.229L64.7527 130.768L66.8531 118.696L68.8086 107.167L70.5685 101.402L71.8794 97.9517L73.48 95.3695Z"
    fill="#E5E5E6" />
  <path d="M61.7397 142.232C61.7427 142.252 61.7427 142.271 61.7397 142.29L61.7832 142.232H61.7397Z"
    fill="#6BB72D" />
  <path d="M86.9438 12.8044C86.9438 12.8044 86.9438 12.8695 86.9438 12.8985L87.009 12.8044H86.9438Z"
    fill="#6BB72D" />
  <path d="M68.9317 106.928C68.9317 107.015 68.9317 107.094 68.8738 107.174L69.0404 106.928H68.9317Z"
    fill="#6BB72D" />
  <path
    d="M54.0627 88.4835C54.519 87.0369 54.9898 85.3661 55.4678 83.4204C54.9898 85.3661 54.519 87.0514 54.0627 88.4835Z"
    fill="#6BB72D" />
  <path d="M78.2746 83.3989C78.2746 83.4785 78.2384 83.5581 78.2239 83.6304L78.376 83.3989H78.2746Z"
    fill="#6BB72D" />
  <path
    d="M57.8215 71.5801C58.0919 69.9358 58.3647 68.1806 58.6399 66.3145C58.3792 68.1806 58.1064 69.9358 57.8215 71.5801Z"
    fill="#6BB72D" />
  <path
    d="M55.4678 83.3988C56.192 80.2669 57.0177 76.4189 57.7999 71.6885C57.0104 76.4189 56.2282 80.2741 55.4678 83.3988Z"
    fill="#6BB72D" />
  <path d="M80.6211 71.6379C80.6211 71.7103 80.6211 71.7898 80.6211 71.8694L80.7732 71.6379H80.6211Z"
    fill="#6BB72D" />
  <path d="M83.6631 48.0872C83.6631 48.1812 83.6631 48.2752 83.6631 48.362L83.8441 48.0872H83.6631Z"
    fill="#6BB72D" />
  <path
    d="M60.197 54.1556C60.4143 52.2244 60.6316 50.2136 60.8488 48.1016C60.6316 50.2136 60.4215 52.2244 60.197 54.1556Z"
    fill="#6BB72D" />
  <path d="M64.7671 130.464H64.8395C64.8395 130.414 64.8395 130.356 64.8395 130.305L64.7671 130.464Z"
    fill="#6BB72D" />
  <path
    d="M84.7493 36.3406H84.6117V36.3767V36.3406H61.9425C61.7614 38.4454 61.5804 40.4706 61.3993 42.4308C61.2207 44.3885 61.0372 46.2788 60.8489 48.1015H83.6629C84.0323 44.4705 84.3944 40.5502 84.7493 36.3406Z"
    fill="#FFE791" />
  <path d="M84.6118 36.3406H84.7494V36.1091L84.6118 36.3406Z" fill="#6BB72D" />
  <path d="M85.6331 24.5725H85.6982V24.4712L85.6331 24.5725Z" fill="#6BB72D" />
  <path
    d="M84.7712 36.1092C84.9595 33.8236 85.1478 31.4584 85.3361 28.9991C85.452 27.4802 85.5679 26.0119 85.6982 24.5725H85.633L85.5534 24.6955L85.633 24.5725H62.8842C62.7538 26.0191 62.6379 27.4657 62.522 28.9991C62.3337 31.5452 62.1382 33.9827 61.9426 36.3407H84.6118L84.7712 36.1092Z"
    fill="#FDDC6B" />
  <path
    d="M87.9433 5.41216C88.2798 3.90947 88.7301 2.4345 89.2905 1H66.5488C66.0781 2.44661 65.3176 3.98725 65.2017 5.52065C65.0134 8.05945 64.4774 10.4464 64.2529 12.7971H86.9294C86.9294 12.7971 87.5522 7.98712 87.9433 5.41216Z"
    fill="#E5A73F" />
  <path
    d="M85.6329 24.5726L85.7053 24.4713C86.0723 20.2328 86.4803 16.3752 86.9293 12.8985L86.8279 13.0504L86.9293 12.8985C86.9293 12.8985 86.9293 12.8334 86.9293 12.8044H64.1008C64.0139 13.5133 63.927 14.2366 63.8401 14.9744C63.8401 15.2781 63.7749 15.5747 63.7387 15.8785C63.659 16.6018 63.5793 17.2745 63.5069 17.9905C63.4634 18.3739 63.4272 18.7717 63.391 19.1623C63.3186 19.8856 63.2462 20.6089 63.1737 21.3322C63.1737 21.6577 63.1158 21.9976 63.0796 22.3231C63.0144 23.0464 62.9492 23.8131 62.884 24.5871L85.6329 24.5726Z"
    fill="#FAC83E" />
  <path
    d="M63.7388 15.8783C63.7388 15.5745 63.804 15.2779 63.8402 14.9741C63.804 15.2779 63.775 15.5745 63.7388 15.8783Z"
    fill="#F7B86D" />
  <path
    d="M63.3911 19.1549C63.4273 18.7643 63.4635 18.3665 63.507 17.9832C63.4635 18.3737 63.4273 18.7716 63.3911 19.1549Z"
    fill="#F7B86D" />
  <path
    d="M63.0796 22.3086C63.0796 21.9831 63.1448 21.6431 63.1737 21.3176C63.1448 21.6431 63.1158 21.9831 63.0796 22.3086Z"
    fill="#F7B86D" />
  <path d="M85.0464 1.79565H85.0029V2.04882C85.0104 1.96337 85.0249 1.87869 85.0464 1.79565V1.79565Z"
    fill="#F2984F" />
  <path
    d="M66.9399 118.696C67.0558 117.879 67.1789 117.069 67.2948 116.215C67.7583 112.758 68.3015 109.763 68.8954 107.174L68.8519 107.232L68.8954 107.174C68.8954 107.094 68.8954 107.015 68.9533 106.928H46.5014C46.3638 107.536 46.2262 108.165 46.0886 108.823C46.0886 108.953 46.0379 109.076 46.0161 109.206C45.9003 109.751 45.7916 110.308 45.6902 110.877C45.6902 111.073 45.6178 111.268 45.5888 111.47C45.4874 112.006 45.4005 112.563 45.3064 113.134C45.2726 113.341 45.2364 113.558 45.1977 113.785C45.0819 114.559 44.966 115.354 44.8501 116.186C44.7342 117.018 44.6183 117.857 44.5024 118.667L66.9399 118.696Z"
    fill="#D2ECFA" />
  <path
    d="M66.94 118.703L66.8096 118.899L66.94 118.703H44.488C44.488 118.776 44.488 118.848 44.488 118.92C44.3649 119.781 44.2346 120.62 44.1042 121.437C44.1042 121.698 44.0245 121.958 43.9811 122.211C43.8579 123.007 43.7276 123.774 43.5972 124.533L43.4668 125.257C43.3365 125.98 43.2061 126.703 43.0757 127.426L42.9454 128.15C42.815 128.83 42.6774 129.488 42.547 130.132C42.547 130.255 42.4963 130.377 42.4746 130.5H64.7672L64.8758 130.341C65.6001 126.927 66.2737 123.108 66.94 118.703Z"
    fill="#BAE2F8" />
  <path
    d="M73.748 95.1381L75.4355 92.4185C76.6012 89.5692 77.5337 86.6302 78.2239 83.6304L78.1587 83.7316L78.2239 83.6304C78.2239 83.5581 78.2239 83.4785 78.2746 83.3989H55.4678C54.9898 85.3591 54.519 87.0154 54.0627 88.4621V88.5344C53.8454 89.2143 53.6354 89.8436 53.4254 90.4222C53.4234 90.4559 53.4234 90.4898 53.4254 90.5235C53.2081 91.1166 52.9981 91.6518 52.7953 92.1292L51.3468 95.102L51.3105 95.1454H73.7625L73.748 95.1381Z"
    fill="#B5D469" />
  <path
    d="M80.6211 71.6378C81.1932 68.1877 81.7654 64.2746 82.3303 59.8335H82.2217H59.5163C59.3859 60.8534 59.2555 61.837 59.1252 62.7918C59.1252 63.0305 59.06 63.262 59.031 63.5151C58.9296 64.289 58.821 65.0485 58.7123 65.7863L58.6399 66.2998C58.3647 68.166 58.0919 69.9212 57.8215 71.5655C57.818 71.5846 57.818 71.6042 57.8215 71.6234L80.6211 71.6378Z"
    fill="#FFFBDA" />
  <path d="M82.2217 59.8336H82.3303V59.6311L82.2217 59.8336Z" fill="#6BB72D" />
  <path
    d="M78.2745 83.3989C78.9988 80.3104 79.8099 76.5202 80.5849 71.8694L80.5342 71.9345L80.5849 71.8694C80.5849 71.7898 80.5849 71.7103 80.5849 71.6379H57.8143C57.8143 71.6379 57.8143 71.6741 57.8143 71.6886C57.0321 76.419 56.2426 80.267 55.4822 83.3989H78.289H78.2745Z"
    fill="#E2EA97" />
  <path
    d="M82.3521 59.6601C82.7866 56.2316 83.2139 52.4921 83.634 48.4055L83.4964 48.6152L83.634 48.4055C83.634 48.3187 83.634 48.2246 83.634 48.1306H60.8489C60.6316 50.2427 60.4144 52.2534 60.1971 54.1847C60.2011 54.2256 60.2011 54.2667 60.1971 54.3076C60.1029 55.1756 60.0015 56.0146 59.9074 56.8392C59.9074 56.9622 59.9074 57.0924 59.8567 57.2153C59.748 58.1267 59.6394 59.0236 59.5308 59.8988H82.2362L82.3521 59.6601Z"
    fill="#FFF2B8" />
  <path
    d="M73.7191 95.167H51.2672C51.0788 95.3768 50.8905 95.6154 50.695 95.8903L50.5863 96.0494C50.398 96.3098 50.217 96.5919 50.0359 96.8957C50.0383 96.9125 50.0383 96.9295 50.0359 96.9463C49.8404 97.2863 49.6376 97.6696 49.442 98.0602L49.3768 98.1904C49.203 98.5521 49.0292 98.9137 48.8554 99.3549C48.8269 99.4109 48.8027 99.4689 48.783 99.5285C48.3919 100.462 48.0152 101.518 47.6459 102.697C47.6459 102.754 47.6459 102.827 47.5879 102.892C47.4069 103.478 47.2258 104.093 47.052 104.751C46.8709 105.474 46.6899 106.197 46.5088 106.921H68.9607C70.3441 100.809 72.0461 97.0187 73.7191 95.167Z"
    fill="#EAF5FC" />
  <path d="M42.4312 130.464L64.9049 130.298L62.7321 142.254L40.2512 142.124L42.4312 130.464Z" fill="#9ED8F5" />
  <path d="M40.2511 142.124L38.3391 153.538L60.8852 153.183L62.7321 142.254L40.2511 142.124Z" fill="#7FC7EF" />
  <path d="M38.3898 153.039L36.4778 164.452L59.0239 164.098L60.8707 153.169L38.3898 153.039Z" fill="#5DB6E7" />
  <path d="M36.5356 163.953L34.6235 175.367L57.1696 175.012L59.0165 164.083L36.5356 163.953Z" fill="#0098CB" />
  <path d="M62.7175 24.5725H85.901" stroke="#D2B7A1" stroke-width="0.28" />
  <path d="M61.7253 36.3335H84.887" stroke="#D2B7A1" stroke-width="0.28" />
  <path d="M60.668 48.1016H83.9021" stroke="#D2B7A1" stroke-width="0.28" />
  <path d="M59.2195 59.8697L82.4464 59.8335" stroke="#D2B7A1" stroke-width="0.28" />
  <path d="M57.5029 71.6306H80.8602" stroke="#D2B7A1" stroke-width="0.28" />
  <path d="M55.3953 83.3989H78.557" stroke="#D2B7A1" stroke-width="0.28" />
  <path d="M46.1538 106.928H69.1851" stroke="#D2B7A1" stroke-width="0.28" />
  <path d="M44.3069 118.696H67.1354" stroke="#D2B7A1" stroke-width="0.28" />
  <path d="M42.2573 130.464H65.0279" stroke="#D2B7A1" stroke-width="0.28" />
  <path d="M38.2812 153.183H61.0446" stroke="#D2B7A1" stroke-width="0.28" />
  <path d="M36.3184 163.982H59.089" stroke="#D2B7A1" stroke-width="0.28" />
  <path d="M40.1062 142.232H62.9565" stroke="#D2B7A1" stroke-width="0.28" />
  <path
    d="M62.2251 95.1018C60.6608 96.4472 60.1248 99.5357 60.1248 99.5357H48.7612L49.2827 98.4362L49.7679 97.3585L50.7022 95.9119L51.3179 95.1524L62.2251 95.1018Z"
    fill="#8DB969" />
  <path d="M51.3179 95.1235L62.6597 95.138" stroke="#D2B7A1" stroke-width="0.28" />
  <path
    d="M73.8711 95.1669L62.0657 95.1018C61.6293 95.7113 61.2511 96.3603 60.9359 97.0403C60.7693 97.5755 60.4506 98.4869 60.4506 98.4869L60.1247 99.5284L48.5801 99.5646"
    stroke="#00AEEB" stroke-width="0.34" />
  <path d="M63.9922 12.8406H86.8642" stroke="#D2B7A1" stroke-width="0.28" />
  <path d="M52.7011 97.2284H31.6252V91.0803" stroke="#231815" stroke-width="0.34" />
  <path
    d="M57.2493 175.07L89.3918 128.873V1.07241H66.6863C65.2378 3.36529 64.1515 12.8912 64.1515 12.8912C63.6879 17.7446 62.9564 23.2055 62.5219 29.0209C59.5307 68.8026 55.627 85.3518 52.7372 92.1726L51.2887 95.1454C48.8769 97.771 46.4072 104.389 44.7704 116.237C44.0461 121.828 43.1915 126.573 42.3513 130.609L41.5909 134.529L38.6939 151.361L34.9929 173.06L34.6235 175.186L57.1769 175.063L57.4955 173.219L61.1458 151.52L64.0935 134.399L64.8178 130.783C65.6796 126.71 66.5125 121.9 67.2802 116.23C68.8808 104.404 71.3506 97.7854 73.7551 95.1526L75.4426 92.433C78.3396 85.7786 82.3158 69.3523 85.3432 29.0137C85.7705 23.2272 86.2775 17.8169 86.7917 12.978C86.7917 12.978 87.9215 3.35806 89.37 1.06519"
    stroke="#231815" stroke-width="0.43" />
  <path
    d="M44.0895 92.2086C44.0895 94.0602 43.6767 95.5719 42.3875 95.5719C41.0984 95.5719 40.6855 94.0602 40.6855 92.2086C40.6855 90.3569 41.0984 88.8452 42.3875 88.8452C43.6767 88.8452 44.0895 90.3858 44.0895 92.2086ZM41.3519 92.2086C41.3519 93.1633 41.4315 94.8776 42.3875 94.8776C43.3436 94.8776 43.4232 93.1489 43.4232 92.2086C43.4232 91.2683 43.3436 89.554 42.3875 89.554C41.4315 89.554 41.3519 91.3044 41.3519 92.2086Z"
    fill="#231815" />
  <path
    d="M47.1822 95.4707V92.6788C47.1822 91.9555 47.1243 91.1815 46.4579 91.1815C46.0668 91.1815 45.444 91.4926 45.444 92.6281V95.4563H44.8501V90.6246H45.444V91.2683C45.5418 91.0473 45.6994 90.8579 45.8989 90.7212C46.0984 90.5845 46.3321 90.506 46.5738 90.4944C46.8331 90.4928 47.0848 90.5815 47.2858 90.7452C47.4867 90.9088 47.6242 91.1373 47.6747 91.3913C47.7644 91.1346 47.9302 90.9112 48.1502 90.751C48.3702 90.5908 48.6338 90.5013 48.9059 90.4944C49.191 90.4948 49.4659 90.6007 49.6773 90.7918C49.8887 90.9828 50.0216 91.2454 50.0503 91.5287C50.1221 91.8783 50.1489 92.2356 50.1299 92.592V95.4852H49.5578V92.7005C49.5578 92.0929 49.5578 91.2032 48.8335 91.2032C48.6162 91.2032 47.8195 91.29 47.8195 92.809V95.4852L47.1822 95.4707Z"
    fill="#231815" />
  <path
    d="M13.6709 89.5759C14.2303 88.7854 14.6719 87.918 14.9818 87.0009L15.4671 87.4059C15.1505 88.3951 14.6918 89.3331 14.1055 90.1907L13.6709 89.5759ZM14.8659 86.3065C14.5174 85.9678 14.1223 85.6804 13.6926 85.453L14.0113 84.8961C14.4538 85.1032 14.8637 85.3737 15.228 85.699L14.8659 86.3065ZM15.2353 84.0498C14.883 83.7209 14.4913 83.4366 14.0692 83.2035L14.3952 82.6611C14.8444 82.8631 15.2578 83.1367 15.6191 83.4712L15.2353 84.0498ZM15.2353 84.7297C15.8998 84.1538 16.387 83.4013 16.6403 82.5598L17.2632 82.69C17.2033 82.9001 17.1283 83.1055 17.0387 83.3048H20.5875V83.9124H16.7417C16.4542 84.3664 16.1218 84.7904 15.7495 85.1782L15.2353 84.7297ZM20.5875 86.5452V87.1022H20.1095C20.1095 87.5217 20.0588 88.3173 20.0444 88.4909H20.4354V89.0623H20.0081C19.9285 89.6699 19.8633 90.2341 19.0738 90.2341H18.1396L18.0309 89.6337H18.9869C19.3201 89.6337 19.378 89.4095 19.4215 89.0551H15.735C15.8871 88.3824 15.9668 87.8616 16.0754 87.0949H15.5612V86.538H16.1334C16.1334 86.1619 16.213 85.4747 16.242 84.6935H20.1747C20.1747 84.9829 20.1747 86.2704 20.1747 86.538L20.5875 86.5452ZM17.6108 88.4909C17.6833 88.0352 17.7267 87.7242 17.7847 87.1022H16.6259C16.5245 87.934 16.51 88.0786 16.4376 88.4909H17.6108ZM17.8281 86.5452C17.8716 86.0534 17.8933 85.6628 17.9078 85.265H16.8214C16.8214 85.5109 16.7707 85.9883 16.7128 86.5452H17.8281ZM19.4505 88.4909C19.4939 88.0497 19.5084 87.5434 19.5229 87.1022H18.3713C18.3134 87.7242 18.2844 87.9773 18.2265 88.4909H19.4505ZM19.5374 86.5452C19.5374 85.7496 19.5374 85.5832 19.5374 85.265H18.4727C18.4727 85.887 18.4727 86.1112 18.4075 86.5452H19.5374Z"
    fill="#231815" />
  <path
    d="M28.0039 83.5291H24.8751C24.8109 83.8712 24.7189 84.2074 24.5999 84.5345H27.6852V90.0389H21.4783V84.5273H23.9915C24.1067 84.2006 24.1915 83.8641 24.245 83.5219H21.1379V82.9143H28.0039V83.5291ZM23.0862 85.1276H22.0722V89.4674H23.0862V85.1276ZM25.4835 85.1276H23.6656V86.1475H25.4835V85.1276ZM25.4835 86.7117H23.6656V87.7605H25.4835V86.7117ZM25.4835 88.3174H23.6656V89.4602H25.4835V88.3174ZM27.1058 85.1421H26.0629V89.4819H27.1058V85.1421Z"
    fill="#231815" />
  <path
    d="M35.4059 82.907V83.5796H32.0816V84.7876C33.1624 85.3418 34.1677 86.0322 35.0727 86.8417L34.6382 87.5144C33.8795 86.7294 33.0081 86.0615 32.0526 85.5326V90.234H31.4515V83.5796H28.5544V82.907H35.4059Z"
    fill="#231815" />
  <path
    d="M31.647 106.754V107.478H28.1851C30.6837 104.049 30.8141 103.42 30.8141 102.769C30.8141 102.118 30.4737 101.612 29.9233 101.612C29.7494 101.612 29.1411 101.612 28.6776 102.552L28.4313 101.764C28.5782 101.508 28.7887 101.294 29.0425 101.143C29.2962 100.993 29.5846 100.91 29.8798 100.903C30.6475 100.903 31.4515 101.438 31.4515 102.769C31.4515 104.1 30.8286 104.867 29.4597 106.791L31.647 106.754Z"
    fill="#231815" />
  <path
    d="M35.5725 104.23C35.5725 106.082 35.1597 107.593 33.8705 107.593C32.5814 107.593 32.1758 106.082 32.1758 104.23C32.1758 102.378 32.5886 100.867 33.8705 100.867C35.1525 100.867 35.5725 102.378 35.5725 104.23ZM32.8349 104.23C32.8349 105.185 32.9218 106.899 33.8705 106.899C34.8193 106.899 34.9062 105.17 34.9062 104.23C34.9062 103.29 34.8266 101.612 33.8705 101.612C32.9145 101.612 32.8349 103.297 32.8349 104.23Z"
    fill="#231815" />
  <path
    d="M39.5052 104.23C39.5052 106.082 39.0923 107.593 37.8032 107.593C36.514 107.593 36.1084 106.082 36.1084 104.23C36.1084 102.378 36.5212 100.888 37.8032 100.888C39.0851 100.888 39.5052 102.378 39.5052 104.23ZM36.7675 104.23C36.7675 105.185 36.8471 106.899 37.8032 106.899C38.7592 106.899 38.8388 105.17 38.8388 104.23C38.8388 103.29 38.7592 101.612 37.8032 101.612C36.8471 101.612 36.7675 103.297 36.7675 104.23Z"
    fill="#231815" />
  <path
    d="M42.6051 107.463V104.671C42.6051 103.948 42.5399 103.174 41.8808 103.174C41.4897 103.174 40.8741 103.485 40.8741 104.621V107.449H40.2729V102.617H40.8668V103.261C40.962 103.039 41.1179 102.849 41.3165 102.712C41.5151 102.575 41.7483 102.497 41.9894 102.487C42.2487 102.485 42.5005 102.574 42.7014 102.738C42.9023 102.901 43.0398 103.13 43.0903 103.384C43.18 103.127 43.3459 102.904 43.5658 102.743C43.7858 102.583 44.0494 102.494 44.3215 102.487C44.6066 102.487 44.8815 102.593 45.0929 102.784C45.3043 102.975 45.4372 103.238 45.4659 103.521C45.5409 103.87 45.5701 104.228 45.5528 104.584V107.478H44.9516V104.693C44.9516 104.085 44.9516 103.196 44.2274 103.196C44.0101 103.196 43.2134 103.282 43.2134 104.801V107.478L42.6051 107.463Z"
    fill="#231815" />
  <path d="M23.8468 112.664H24.4552V119.13H23.7816V113.517L22.7025 114.378L22.6228 113.655L23.8468 112.664Z"
    fill="#231815" />
  <path
    d="M29.5611 115.897C29.5611 117.748 29.1482 119.26 27.8591 119.26C26.5699 119.26 26.1643 117.748 26.1643 115.897C26.1643 114.045 26.5771 112.533 27.8591 112.533C29.141 112.533 29.5611 114.045 29.5611 115.897ZM26.8306 115.897C26.8306 116.852 26.9103 118.566 27.8591 118.566C28.8078 118.566 28.8948 116.837 28.8948 115.897C28.8948 114.957 28.8151 113.242 27.8591 113.242C26.903 113.242 26.8306 114.964 26.8306 115.897Z"
    fill="#231815" />
  <path
    d="M33.4939 115.897C33.4939 117.748 33.0811 119.26 31.7919 119.26C30.5028 119.26 30.0972 117.748 30.0972 115.897C30.0972 114.045 30.51 112.533 31.7919 112.533C33.0739 112.533 33.4939 114.045 33.4939 115.897ZM30.7562 115.897C30.7562 116.852 30.8432 118.566 31.7919 118.566C32.7407 118.566 32.8276 116.837 32.8276 115.897C32.8276 114.957 32.7479 113.242 31.7919 113.242C30.8359 113.242 30.7273 114.964 30.7273 115.897H30.7562Z"
    fill="#231815" />
  <path
    d="M37.4265 115.897C37.4265 117.748 37.0137 119.26 35.7245 119.26C34.4354 119.26 34.0298 117.748 34.0298 115.897C34.0298 114.045 34.4426 112.533 35.7245 112.533C37.0065 112.533 37.4265 114.045 37.4265 115.897ZM34.6889 115.897C34.6889 116.852 34.7758 118.566 35.7245 118.566C36.6733 118.566 36.7602 116.837 36.7602 115.897C36.7602 114.957 36.6806 113.242 35.7245 113.242C34.7685 113.242 34.6889 114.964 34.6889 115.897Z"
    fill="#231815" />
  <path
    d="M40.5264 119.13V116.338C40.5264 115.615 40.4612 114.841 39.8021 114.841C39.411 114.841 38.7954 115.152 38.7954 116.288V119.116H38.187V114.284H38.7881V114.928C38.8833 114.706 39.0392 114.516 39.2378 114.379C39.4364 114.242 39.6696 114.164 39.9107 114.154C40.17 114.152 40.4218 114.241 40.6227 114.405C40.8236 114.568 40.9611 114.797 41.0116 115.051C41.1017 114.793 41.2687 114.569 41.4901 114.408C41.7115 114.248 41.9767 114.159 42.2501 114.154C42.5343 114.157 42.8074 114.264 43.0181 114.455C43.2288 114.645 43.3627 114.906 43.3944 115.188C43.4626 115.538 43.4893 115.895 43.4741 116.251V119.145H42.8729V116.36C42.8729 115.752 42.8729 114.863 42.1487 114.863C41.9387 114.863 41.1347 114.949 41.1347 116.468V119.145L40.5264 119.13Z"
    fill="#231815" />
  <path
    d="M23.4121 130.421V131.144H19.9502C22.4489 127.716 22.5792 127.086 22.5792 126.435C22.5792 125.784 22.2388 125.256 21.6957 125.256C21.5146 125.256 20.9135 125.256 20.4427 126.197L20.2037 125.408C20.3501 125.152 20.5605 124.938 20.8143 124.787C21.0682 124.636 21.3569 124.554 21.6522 124.548C22.3765 124.548 23.2166 125.083 23.2166 126.414C23.2166 127.745 22.5937 128.511 21.2321 130.443L23.4121 130.421Z"
    fill="#231815" />
  <path
    d="M27.3377 127.889C27.3377 129.741 26.9249 131.253 25.6429 131.253C24.361 131.253 23.9409 129.741 23.9409 127.889C23.9409 126.038 24.3537 124.526 25.6429 124.526C26.9321 124.526 27.3377 126.038 27.3377 127.889ZM24.6072 127.889C24.6072 128.844 24.6869 130.558 25.6429 130.558C26.5989 130.558 26.6786 128.837 26.6786 127.889C26.6786 126.942 26.5917 125.235 25.6429 125.235C24.6941 125.235 24.6072 126.927 24.6072 127.889Z"
    fill="#231815" />
  <path
    d="M31.2703 127.889C31.2703 129.741 30.8575 131.253 29.5755 131.253C28.2936 131.253 27.8735 129.741 27.8735 127.889C27.8735 126.038 28.2864 124.526 29.5755 124.526C30.8647 124.526 31.2703 126.038 31.2703 127.889ZM28.5398 127.889C28.5398 128.844 28.6195 130.558 29.5755 130.558C30.5316 130.558 30.604 128.837 30.604 127.889C30.604 126.942 30.5243 125.235 29.5755 125.235C28.6268 125.235 28.5543 126.927 28.5543 127.889H28.5398Z"
    fill="#231815" />
  <path
    d="M35.2032 127.889C35.2032 129.741 34.7903 131.253 33.5012 131.253C32.212 131.253 31.8064 129.741 31.8064 127.889C31.8064 126.038 32.2192 124.526 33.5012 124.526C34.7831 124.526 35.2032 126.038 35.2032 127.889ZM32.4655 127.889C32.4655 128.844 32.5524 130.558 33.5012 130.558C34.4499 130.558 34.5368 128.837 34.5368 127.889C34.5368 126.942 34.4572 125.235 33.5012 125.235C32.5451 125.235 32.4655 126.927 32.4655 127.889Z"
    fill="#231815" />
  <path
    d="M38.303 131.122V128.33C38.303 127.607 38.2378 126.833 37.5787 126.833C37.1804 126.833 36.5648 127.144 36.5648 128.28V131.108H35.9636V126.276H36.5648V126.927C36.6603 126.705 36.8161 126.515 37.0145 126.377C37.2128 126.239 37.4459 126.159 37.6874 126.146C37.9482 126.146 38.201 126.236 38.403 126.401C38.605 126.565 38.7436 126.795 38.7955 127.05C38.8821 126.791 39.047 126.565 39.2675 126.403C39.4879 126.241 39.7531 126.151 40.0267 126.146C40.3109 126.15 40.584 126.257 40.7947 126.447C41.0055 126.637 41.1393 126.898 41.171 127.18C41.2392 127.53 41.266 127.887 41.2507 128.244V131.137H40.6496V128.374C40.6496 127.766 40.6496 126.869 39.9253 126.869C39.7153 126.869 38.9113 126.956 38.9113 128.475V131.151L38.303 131.122Z"
    fill="#231815" />
  <path
    d="M20.305 142.572V141.126H18.0381V140.482L20.2905 136.106H20.9641V140.446H21.5797V141.118H20.9641V142.565L20.305 142.572ZM20.305 140.453V137.336L18.6972 140.453H20.305Z"
    fill="#231815" />
  <path
    d="M25.4329 139.339C25.4329 141.191 25.0201 142.703 23.7309 142.703C22.4417 142.703 22.0361 141.191 22.0361 139.339C22.0361 137.488 22.449 135.976 23.7381 135.976C25.0273 135.976 25.4329 137.488 25.4329 139.339ZM22.6952 139.339C22.6952 140.294 22.7749 142.008 23.7309 142.008C24.6869 142.008 24.7666 140.279 24.7666 139.339C24.7666 138.399 24.6869 136.685 23.7309 136.685C22.7749 136.685 22.6952 138.406 22.6952 139.339Z"
    fill="#231815" />
  <path
    d="M29.3654 139.339C29.3654 141.191 28.9454 142.703 27.6634 142.703C26.3815 142.703 25.9614 141.191 25.9614 139.339C25.9614 137.488 26.3743 135.976 27.6634 135.976C28.9526 135.976 29.3654 137.488 29.3654 139.339ZM26.6277 139.339C26.6277 140.294 26.7074 142.008 27.6634 142.008C28.6194 142.008 28.6991 140.279 28.6991 139.339C28.6991 138.399 28.6194 136.685 27.6634 136.685C26.7074 136.685 26.6277 138.406 26.6277 139.339V139.339Z"
    fill="#231815" />
  <path
    d="M33.291 139.339C33.291 141.191 32.8782 142.703 31.5963 142.703C30.3144 142.703 29.8943 141.191 29.8943 139.339C29.8943 137.488 30.3071 135.976 31.5963 135.976C32.8855 135.976 33.291 137.488 33.291 139.339ZM30.5606 139.339C30.5606 140.294 30.6403 142.008 31.5963 142.008C32.5523 142.008 32.632 140.279 32.632 139.339C32.632 138.399 32.5451 136.685 31.5963 136.685C30.6475 136.685 30.5606 138.406 30.5606 139.339V139.339Z"
    fill="#231815" />
  <path
    d="M36.3909 142.572V139.78C36.3909 139.057 36.333 138.283 35.6667 138.283C35.2756 138.283 34.6527 138.594 34.6527 139.73V142.558H34.0588V137.777H34.6527V138.421C34.7463 138.191 34.9038 137.992 35.1065 137.849C35.3092 137.705 35.5488 137.623 35.7971 137.61C36.0528 137.612 36.3003 137.701 36.4981 137.863C36.6959 138.025 36.832 138.25 36.8834 138.5C36.9722 138.243 37.1379 138.019 37.358 137.859C37.5782 137.698 37.8422 137.609 38.1147 137.603C38.3993 137.605 38.6733 137.712 38.8843 137.902C39.0954 138.093 39.2288 138.355 39.259 138.638C39.3272 138.988 39.3539 139.345 39.3387 139.701V142.594H38.7448V139.809C38.7448 139.202 38.7448 138.312 38.0205 138.312C37.8105 138.312 37.0138 138.399 37.0138 139.918V142.594L36.3909 142.572Z"
    fill="#231815" />
  <path
    d="M18.7189 147.657C18.4723 147.637 18.2243 147.674 17.9946 147.766C17.1835 148.106 16.7851 149.299 16.7055 150.29C16.8171 150.042 16.9966 149.83 17.2234 149.679C17.4501 149.528 17.715 149.444 17.9874 149.437C18.8203 149.437 19.5518 150.232 19.5518 151.512C19.5518 152.793 18.8275 153.682 17.8788 153.682C16.93 153.682 16.0898 152.771 16.0898 150.789C16.0898 148.93 16.8938 146.797 18.7406 146.956L18.7189 147.657ZM17.886 150.124C17.7223 150.134 17.5625 150.178 17.4163 150.252C17.2701 150.327 17.1406 150.43 17.0356 150.556C16.9306 150.682 16.8523 150.827 16.8055 150.984C16.7587 151.141 16.7444 151.306 16.7634 151.469C16.7634 152.135 17.1255 152.981 17.8643 152.981C18.4799 152.981 18.8782 152.337 18.8782 151.534C18.8782 150.558 18.4147 150.124 17.886 150.124V150.124Z"
    fill="#231815" />
  <path
    d="M23.4195 150.312C23.4195 152.171 23.0066 153.675 21.7175 153.675C20.4283 153.675 20.0227 152.171 20.0227 150.312C20.0227 148.453 20.4355 146.956 21.7175 146.956C22.9994 146.956 23.4195 148.46 23.4195 150.312ZM20.689 150.312C20.689 151.266 20.7687 152.981 21.7175 152.981C22.6662 152.981 22.7604 151.259 22.7604 150.312C22.7604 149.364 22.6807 147.657 21.7247 147.657C20.7687 147.657 20.689 149.35 20.689 150.312V150.312Z"
    fill="#231815" />
  <path
    d="M27.3521 150.312C27.3521 152.171 26.9393 153.675 25.6501 153.675C24.3609 153.675 23.9553 152.171 23.9553 150.312C23.9553 148.453 24.3681 146.956 25.6501 146.956C26.932 146.956 27.3521 148.46 27.3521 150.312ZM24.6144 150.312C24.6144 151.266 24.7013 152.981 25.6501 152.981C26.5989 152.981 26.6858 151.259 26.6858 150.312C26.6858 149.364 26.6061 147.657 25.6501 147.657C24.6941 147.657 24.6144 149.35 24.6144 150.312Z"
    fill="#231815" />
  <path
    d="M31.2849 150.312C31.2849 152.171 30.8721 153.675 29.5829 153.675C28.2938 153.675 27.8882 152.171 27.8882 150.312C27.8882 148.453 28.301 146.956 29.5829 146.956C30.8649 146.956 31.2849 148.46 31.2849 150.312ZM28.5473 150.312C28.5473 151.266 28.6269 152.981 29.5829 152.981C30.539 152.981 30.6186 151.259 30.6186 150.312C30.6186 149.364 30.539 147.657 29.5829 147.657C28.6269 147.657 28.5545 149.35 28.5545 150.312H28.5473Z"
    fill="#231815" />
  <path
    d="M34.3846 153.545V150.796C34.3846 150.073 34.3194 149.292 33.6603 149.292C33.2692 149.292 32.6536 149.603 32.6536 150.739V153.567H32.0525V148.735H32.6536V149.386C32.7485 149.164 32.9041 148.972 33.1026 148.834C33.3011 148.696 33.5346 148.617 33.7762 148.605C34.0365 148.603 34.2891 148.693 34.4901 148.858C34.6912 149.023 34.8281 149.254 34.8771 149.509C34.966 149.25 35.1325 149.024 35.3539 148.862C35.5754 148.701 35.8413 148.611 36.1156 148.605C36.3939 148.611 36.6609 148.717 36.8681 148.902C37.0753 149.088 37.2092 149.342 37.2454 149.617C37.3133 149.967 37.34 150.324 37.3251 150.681V153.574H36.7239V150.796C36.7239 150.189 36.7239 149.292 35.9997 149.292C35.7824 149.292 34.9857 149.386 34.9857 150.898V153.574L34.3846 153.545Z"
    fill="#231815" />
  <path
    d="M14.4242 159.114C14.3988 158.905 14.4181 158.693 14.4809 158.491C14.5437 158.29 14.6486 158.105 14.7886 157.947C14.9286 157.789 15.1005 157.663 15.293 157.576C15.4855 157.49 15.6942 157.445 15.9053 157.445C16.1164 157.445 16.3251 157.49 16.5176 157.576C16.7101 157.663 16.882 157.789 17.022 157.947C17.162 158.105 17.2669 158.29 17.3297 158.491C17.3925 158.693 17.4118 158.905 17.3864 159.114C17.396 159.368 17.3482 159.621 17.2466 159.854C17.1451 160.087 16.9924 160.294 16.7997 160.46C17.0655 160.656 17.2791 160.914 17.4217 161.211C17.5644 161.509 17.6319 161.837 17.6182 162.167C17.654 162.412 17.6365 162.662 17.5669 162.901C17.4972 163.139 17.3771 163.359 17.2146 163.547C17.0521 163.734 16.8511 163.885 16.6251 163.988C16.3992 164.091 16.1537 164.145 15.9053 164.145C15.6569 164.145 15.4114 164.091 15.1854 163.988C14.9595 163.885 14.7585 163.734 14.596 163.547C14.4335 163.359 14.3134 163.139 14.2437 162.901C14.1741 162.662 14.1566 162.412 14.1924 162.167C14.1769 161.836 14.2444 161.507 14.3885 161.209C14.5327 160.911 14.7491 160.653 15.0181 160.46C14.8199 160.298 14.6627 160.092 14.5595 159.858C14.4563 159.624 14.4099 159.369 14.4242 159.114ZM16.9591 162.13C16.9846 161.977 16.9763 161.82 16.9349 161.67C16.8935 161.521 16.82 161.381 16.7194 161.263C16.6187 161.144 16.4935 161.049 16.3523 160.984C16.211 160.918 16.0573 160.885 15.9017 160.885C15.746 160.885 15.5923 160.918 15.4511 160.984C15.3099 161.049 15.1846 161.144 15.084 161.263C14.9834 161.381 14.9098 161.521 14.8684 161.67C14.827 161.82 14.8188 161.977 14.8443 162.13C14.8067 162.29 14.8056 162.455 14.8413 162.615C14.8769 162.775 14.9482 162.925 15.0499 163.053C15.1516 163.181 15.2811 163.285 15.4286 163.356C15.5761 163.427 15.7378 163.464 15.9017 163.464C16.0655 163.464 16.2273 163.427 16.3748 163.356C16.5223 163.285 16.6517 163.181 16.7534 163.053C16.8551 162.925 16.9265 162.775 16.9621 162.615C16.9977 162.455 16.9967 162.29 16.9591 162.13V162.13ZM16.7346 159.15C16.7346 158.594 16.4593 158.094 15.9017 158.094C15.344 158.094 15.076 158.579 15.076 159.15C15.076 159.722 15.3947 160.185 15.9017 160.185C16.4086 160.185 16.7346 159.722 16.7346 159.15Z"
    fill="#231815" />
  <path
    d="M21.5364 160.785C21.5364 162.644 21.1236 164.148 19.8344 164.148C18.5452 164.148 18.1396 162.644 18.1396 160.785C18.1396 158.926 18.5525 157.429 19.8344 157.429C21.1163 157.429 21.5364 158.933 21.5364 160.785ZM18.7987 160.785C18.7987 161.74 18.8856 163.454 19.8344 163.454C20.7832 163.454 20.8701 161.733 20.8701 160.785C20.8701 159.838 20.7904 158.131 19.8344 158.131C18.8784 158.131 18.7987 159.852 18.7987 160.785Z"
    fill="#231815" />
  <path
    d="M25.469 160.785C25.469 162.644 25.0562 164.148 23.767 164.148C22.4778 164.148 22.0723 162.644 22.0723 160.785C22.0723 158.926 22.4851 157.429 23.767 157.429C25.049 157.429 25.469 158.933 25.469 160.785ZM22.7313 160.785C22.7313 161.74 22.811 163.454 23.767 163.454C24.723 163.454 24.8027 161.733 24.8027 160.785C24.8027 159.838 24.723 158.131 23.767 158.131C22.811 158.131 22.7603 159.852 22.7603 160.785H22.7313Z"
    fill="#231815" />
  <path
    d="M29.4018 160.785C29.4018 162.644 28.989 164.148 27.6998 164.148C26.4106 164.148 25.9978 162.644 25.9978 160.785C25.9978 158.926 26.4106 157.429 27.6998 157.429C28.989 157.429 29.4018 158.933 29.4018 160.785ZM26.6641 160.785C26.6641 161.74 26.7438 163.454 27.6998 163.454C28.6558 163.454 28.7355 161.733 28.7355 160.785C28.7355 159.838 28.6558 158.131 27.6998 158.131C26.7438 158.131 26.6641 159.852 26.6641 160.785Z"
    fill="#231815" />
  <path
    d="M32.4945 164.018V161.234C32.4945 160.51 32.4365 159.729 31.7702 159.729C31.3791 159.729 30.7562 160.04 30.7562 161.176V164.004H30.1624V159.187H30.7273V159.838C30.8248 159.616 30.982 159.425 31.1815 159.287C31.381 159.149 31.6148 159.069 31.8571 159.056C32.1174 159.055 32.37 159.145 32.571 159.31C32.7721 159.475 32.909 159.705 32.958 159.961C33.0456 159.702 33.2107 159.476 33.4309 159.315C33.6512 159.153 33.9159 159.063 34.1892 159.056C34.4743 159.057 34.7492 159.163 34.9606 159.354C35.1719 159.545 35.3049 159.807 35.3335 160.091C35.405 160.44 35.4318 160.798 35.4132 161.154V164.047H34.8193V161.27C34.8193 160.662 34.8193 159.765 34.0951 159.765C33.8778 159.765 33.0811 159.859 33.0811 161.371V164.047L32.4945 164.018Z"
    fill="#231815" />
  <path
    d="M11.223 12.7321V13.4554C10.9822 14.2863 10.687 15.1006 10.3394 15.8929C10.9188 16.5885 11.241 17.4619 11.2519 18.3666C11.2519 19.8132 10.5277 19.8928 10.0714 19.8928H9.54992L9.39783 19.061H9.96999C10.477 19.061 10.477 18.4823 10.477 18.3377C10.4619 17.4662 10.1239 16.6312 9.5282 15.9942C9.90657 15.1831 10.2143 14.3409 10.448 13.4771H9.23849V21.9253H8.41284V12.7321H11.223ZM17.2198 19.4443H14.7935V20.8331H17.6036V21.607H10.8101V20.8331H13.9462V19.4443H11.4692V18.721H13.9462V17.7084H14.7935V18.7355H17.2198V19.4443ZM14.7935 12.4138V13.3686H17.2198V14.0919H14.7935V15.1913H17.6109V15.958H15.6554V16.9851C15.6554 17.2672 15.6554 17.2961 15.9161 17.2961H16.5318C16.6838 17.2961 16.778 17.2961 16.807 17.1659C16.8359 17.0357 16.8794 16.5584 16.8866 16.4426L17.6109 16.609C17.5023 17.7952 17.3719 18.005 16.6042 18.005H15.7713C15.047 18.005 14.8877 17.9182 14.8877 17.1732V15.9435H13.7072C13.6583 16.4898 13.4584 17.0118 13.1297 17.4512C12.8011 17.8906 12.3565 18.2301 11.8458 18.4317L11.4257 17.7663C11.8261 17.6415 12.1841 17.4086 12.4602 17.0933C12.7363 16.778 12.9197 16.3926 12.9901 15.9797H11.0998V15.213H13.9462V14.0919H11.5199V13.3686H13.9462V12.4428L14.7935 12.4138Z"
    fill="#231815" />
  <path
    d="M11.2737 30.0044C10.2756 30.4151 9.24316 30.737 8.18839 30.9664L8.09424 30.0912C8.3767 30.0333 8.64467 29.9972 9.41963 29.8019V25.9901H8.14494V25.2089H9.41963V22.6846H10.2598V25.2089H11.2737V25.9901H10.2598V29.5632C10.8247 29.3896 10.984 29.3317 11.2303 29.2449L11.2737 30.0044ZM14.1707 25.4331V22.6846H15.0036V25.2089L17.3647 24.5941C17.3934 25.9151 17.3378 27.2366 17.1981 28.5506C17.1796 28.7891 17.0701 29.0114 16.8922 29.1716C16.7143 29.3318 16.4816 29.4176 16.2421 29.4113H15.4744L15.3513 28.5578H16.0755C16.3725 28.5578 16.4304 28.4059 16.4956 28.1744C16.5969 27.3031 16.6356 26.4257 16.6115 25.5488L15.0399 25.9684V29.8236H14.1997V26.2071L12.7512 26.5832V30.923C12.7512 31.1111 12.8743 31.1979 13.1206 31.1979H16.3363C16.5391 31.1979 16.6549 31.1979 16.7636 30.9013C16.8556 30.5 16.9066 30.0905 16.9157 29.6789L17.7196 29.9248C17.6182 31.7837 17.1837 32.0152 16.5608 32.0152H12.8961C12.3094 32.0152 11.94 31.7982 11.94 31.2196V26.8002L11.0347 27.0461L10.8971 26.2794L11.94 25.9973V23.5887H12.7729V25.7586L14.1707 25.4331Z"
    fill="#231815" />
  <path
    d="M13.4101 41.1723C15.5829 40.449 16.2709 38.9446 16.2709 37.6426C16.2884 37.2502 16.2283 36.8583 16.0939 36.4891C15.9595 36.12 15.7536 35.7809 15.4879 35.4914C15.2221 35.2018 14.9019 34.9674 14.5453 34.8016C14.1888 34.6359 13.803 34.5419 13.4101 34.5252C13.2252 36.3919 12.769 38.2218 12.0557 39.9572C11.3967 41.3532 10.8318 41.4038 10.6072 41.4038C9.65122 41.4038 8.5938 39.9572 8.5938 38.1272C8.58256 37.537 8.69202 36.9507 8.91546 36.4042C9.13891 35.8577 9.47165 35.3624 9.89333 34.9487C10.315 34.5351 10.8168 34.2117 11.3679 33.9983C11.919 33.7849 12.508 33.6861 13.0987 33.7078C13.6384 33.6734 14.1794 33.7518 14.6871 33.938C15.1947 34.1242 15.658 34.414 16.0471 34.7891C16.4363 35.1641 16.7429 35.6161 16.9473 36.1162C17.1517 36.6162 17.2494 37.1534 17.2342 37.6933C17.2342 38.8722 16.7924 40.977 13.9533 41.9463L13.4101 41.1723ZM9.43394 38.1345C9.43394 39.4943 10.1003 40.4418 10.5348 40.4418C10.8607 40.4418 11.1504 39.7836 11.3677 39.2918C11.9719 37.7746 12.3572 36.1795 12.512 34.5541C11.645 34.6617 10.8492 35.0881 10.2801 35.7502C9.71094 36.4122 9.40926 37.2623 9.43394 38.1345Z"
    fill="#231815" />
  <path
    d="M17.6471 44.6224H8.13037V43.8991H12.4759V43.1758H13.345V43.8991H17.6471V44.6224ZM17.2343 51.8988C17.2343 52.586 16.7997 52.6728 16.6042 52.6728H14.9818L14.7935 51.8627H16.0682C16.2276 51.8627 16.3507 51.8193 16.3507 51.5516V48.6584H9.4123V52.6728H8.56492V47.9785H17.256L17.2343 51.8988ZM16.242 47.3637H9.48473V45.1938H16.242V47.3637ZM15.3947 45.7941H10.3249V46.7417H15.3947V45.7941ZM15.2498 51.5806H10.5277V49.3022H15.2788L15.2498 51.5806ZM14.4604 49.9387H11.3171V50.9368H14.4893L14.4604 49.9387Z"
    fill="#231815" />
  <path
    d="M15.8799 59.7106C15.2495 59.3744 14.5738 59.1308 13.8737 58.9873L13.8303 58.264C14.1949 58.341 14.5514 58.4524 14.895 58.5967C14.3518 57.8734 13.852 57.1501 13.3595 56.4268C11.9057 56.6529 10.4339 56.7425 8.9633 56.6944L8.89087 55.7902C9.27472 55.7902 9.61512 55.7902 10.1438 55.7902C11.0546 55.791 11.9644 55.7306 12.867 55.6094C12.4759 54.9512 12.1428 54.2785 11.9183 53.8952L12.8163 53.5986C12.9974 53.9748 13.3306 54.6619 13.7796 55.4431C14.7631 55.2632 15.7229 54.972 16.6404 54.5751L16.988 55.4141C16.1031 55.7715 15.1865 56.0451 14.2504 56.2315C14.884 57.247 15.6114 58.2011 16.4231 59.0813L15.8799 59.7106ZM15.9741 62.206C15.058 62.3662 14.1302 62.4508 13.2002 62.4591C11.9183 62.4591 10.6798 62.2638 9.94828 61.5478C9.71566 61.326 9.54306 61.0489 9.44658 60.7425C9.35009 60.4361 9.33286 60.1103 9.39649 59.7955C9.46012 59.4806 9.60254 59.187 9.81047 58.942C10.0184 58.6969 10.2851 58.5085 10.5856 58.3941L11.1071 58.9945C10.868 59.0792 10.6597 59.2331 10.5087 59.4367C10.3578 59.6403 10.2711 59.8842 10.2597 60.1373C10.2597 61.5839 12.6787 61.5839 13.193 61.5839C14.1368 61.5791 15.0771 61.4675 15.9958 61.2512L15.9741 62.206Z"
    fill="#231815" />
  <path
    d="M8 104.288C8.77354 103.318 9.38721 102.232 9.81788 101.069L10.4914 101.568C10.0463 102.82 9.41121 103.996 8.60837 105.055L8 104.288ZM9.66579 100.194C9.16969 99.7687 8.61928 99.4112 8.02897 99.1307L8.47077 98.4074C9.08018 98.6644 9.65062 99.0052 10.1655 99.42L9.66579 100.194ZM10.1728 97.3803C9.67032 96.9585 9.11526 96.6035 8.52146 96.3242L8.97774 95.6443C9.59199 95.893 10.1656 96.2319 10.6797 96.6497L10.1728 97.3803ZM10.2162 98.2265C11.1084 97.5388 11.7846 96.61 12.1645 95.5503L13.0263 95.7167C12.9426 95.9789 12.841 96.235 12.7221 96.4834H17.6254V97.2067H12.2731C11.8602 97.7747 11.3947 98.3027 10.8825 98.7835L10.2162 98.2265ZM17.6471 100.498V101.221H16.9663C16.9663 101.742 16.8939 102.74 16.8721 102.957H17.4153V103.68H16.7925C16.6766 104.44 16.5897 105.127 15.4888 105.127H14.2069L14.0548 104.404H15.3802C15.8437 104.404 15.9234 104.121 15.9885 103.68H10.8608C11.0658 102.872 11.2254 102.054 11.3388 101.228H10.6146V100.505H11.404C11.4547 100.028 11.5126 99.1813 11.5561 98.1976H17.017C17.017 98.5665 17.017 100.172 17.017 100.505L17.6471 100.498ZM13.5116 102.928C13.613 102.364 13.6782 101.973 13.7578 101.192H12.1427C12.0051 102.241 11.9834 102.414 11.882 102.928H13.5116ZM13.823 100.498C13.8737 99.8829 13.9027 99.3983 13.9244 98.892H12.3745C12.3745 99.203 12.3093 99.7889 12.2297 100.498H13.823ZM16.0682 102.928C16.1262 102.378 16.1479 101.742 16.1696 101.192H14.5255C14.4459 101.973 14.4024 102.291 14.3228 102.928H16.0682ZM16.1913 100.498C16.1913 99.4995 16.1913 99.297 16.1913 98.892H14.6704C14.6704 99.6731 14.6197 99.948 14.5762 100.498H16.1913Z"
    fill="#231815" />
  <path
    d="M13.4102 114.096C15.583 113.372 16.271 111.875 16.271 110.573C16.2885 110.181 16.2284 109.789 16.094 109.42C15.9596 109.051 15.7537 108.712 15.488 108.422C15.2223 108.132 14.902 107.898 14.5454 107.732C14.1889 107.567 13.8031 107.473 13.4102 107.456C13.2253 109.323 12.7691 111.152 12.0559 112.888C11.3968 114.284 10.8319 114.334 10.6073 114.334C9.65133 114.334 8.59392 112.888 8.59392 111.051C8.58367 110.461 8.69386 109.876 8.91775 109.33C9.14164 108.784 9.47454 108.29 9.89611 107.877C10.3177 107.464 10.8191 107.141 11.3697 106.928C11.9204 106.715 12.5087 106.617 13.0988 106.639C13.6388 106.603 14.1802 106.681 14.6884 106.866C15.1966 107.052 15.6603 107.342 16.0497 107.717C16.4391 108.093 16.7456 108.545 16.9496 109.046C17.1536 109.546 17.2506 110.084 17.2343 110.624C17.2343 111.803 16.7925 113.9 13.9534 114.877L13.4102 114.096ZM9.43405 111.065C9.43405 112.425 10.1004 113.372 10.5349 113.372C10.8608 113.372 11.1505 112.714 11.3678 112.222C11.971 110.705 12.3562 109.11 12.5121 107.485C11.6451 107.592 10.8493 108.019 10.2802 108.681C9.71105 109.343 9.40937 110.193 9.43405 111.065V111.065Z"
    fill="#231815" />
  <path
    d="M10.39 122.103C9.94255 123.331 9.33629 124.496 8.58665 125.567L8 124.801C8.7086 123.813 9.28787 122.738 9.72373 121.604L10.39 122.103ZM9.55715 120.656C9.0997 120.256 8.58141 119.931 8.02173 119.694L8.42007 118.971C9.00547 119.232 9.55742 119.562 10.0641 119.955L9.55715 120.656ZM9.99895 117.835C9.52564 117.442 9.00497 117.109 8.44904 116.844L8.91256 116.157C9.48011 116.415 10.017 116.735 10.5132 117.112L9.99895 117.835ZM13.7071 121.213V120.135H14.5255V121.213H17.6398V121.936H14.9818C15.6985 122.968 16.6755 123.791 17.8137 124.323L17.3067 125.112C16.2148 124.471 15.2678 123.612 14.5255 122.587V125.64H13.7071V122.587C12.9355 123.702 11.8873 124.596 10.6653 125.184L10.1583 124.461C12.3817 123.434 13.0119 122.428 13.3088 121.958H10.5639V121.235L13.7071 121.213ZM15.3584 119.043C15.3584 119.152 15.3584 119.318 15.6192 119.318H16.6404C16.8287 119.318 16.8649 119.275 16.8866 119.108C16.9083 118.942 16.9518 118.653 16.959 118.515L17.6833 118.674C17.5674 119.911 17.3646 120.041 16.8939 120.041H15.3729C14.9673 120.041 14.5762 119.955 14.5762 119.419V117.141H13.5695C13.5262 117.852 13.2764 118.535 12.8506 119.107C12.4249 119.678 11.8417 120.114 11.1722 120.36L10.7087 119.636C12.2369 119.058 12.7294 118.146 12.7946 117.17H11.643V118.349H10.8246V116.432H17.4008V118.269H16.6042V117.17H15.3584V119.043Z"
    fill="#231815" />
  <path
    d="M15.8799 132.641C15.2509 132.302 14.5748 132.058 13.8737 131.918L13.8303 131.195C14.1942 131.278 14.5503 131.391 14.895 131.535C14.3518 130.811 13.852 130.088 13.3595 129.365C11.9057 129.591 10.4339 129.68 8.9633 129.632L8.89087 128.728C9.27472 128.728 9.61512 128.728 10.1438 128.728C11.0546 128.729 11.9644 128.669 12.867 128.547C12.4759 127.889 12.1428 127.209 11.9183 126.833L12.8163 126.537C12.9974 126.913 13.3306 127.6 13.7796 128.381C14.7632 128.198 15.7229 127.904 16.6404 127.506L16.9663 128.374C16.0814 128.731 15.1648 129.005 14.2286 129.191C14.8623 130.207 15.5897 131.161 16.4014 132.041L15.8799 132.641ZM15.9741 135.137C15.058 135.297 14.1302 135.382 13.2002 135.39C11.9183 135.39 10.6798 135.195 9.94828 134.479C9.71583 134.256 9.54343 133.978 9.44707 133.671C9.35071 133.365 9.33352 133.038 9.39709 132.723C9.46066 132.408 9.60293 132.114 9.81071 131.868C10.0185 131.622 10.285 131.433 10.5856 131.318L11.1071 131.925C10.8686 132.009 10.6605 132.161 10.5095 132.364C10.3585 132.566 10.2715 132.809 10.2597 133.061C10.2597 134.507 12.6787 134.507 13.193 134.507C14.1365 134.504 15.0767 134.395 15.9958 134.182L15.9741 135.137Z"
    fill="#231815" />
  <path d="M38.8317 77.1855H39.4183V83.6446H38.7665V78.039L37.6873 78.8998L37.6077 78.1765L38.8317 77.1855Z"
    fill="#231815" />
  <path
    d="M44.5459 80.4188C44.5459 82.2705 44.133 83.7749 42.8439 83.7749C41.5547 83.7749 41.1418 82.2705 41.1418 80.4188C41.1418 78.5671 41.5547 77.0554 42.8439 77.0554C44.133 77.0554 44.5459 78.5599 44.5459 80.4188ZM41.8082 80.4188C41.8082 81.3663 41.8878 83.0806 42.8439 83.0806C43.7999 83.0806 43.8795 81.3591 43.8795 80.4188C43.8795 79.4785 43.7999 77.7426 42.8439 77.7426C41.8878 77.7426 41.8082 79.4785 41.8082 80.4188Z"
    fill="#231815" />
  <path
    d="M48.4787 80.4188C48.4787 82.2705 48.0659 83.7749 46.7767 83.7749C45.4875 83.7749 45.0747 82.2705 45.0747 80.4188C45.0747 78.5671 45.4875 77.0554 46.7767 77.0554C48.0659 77.0554 48.4787 78.5599 48.4787 80.4188ZM45.741 80.4188C45.741 81.3663 45.8207 83.0806 46.7767 83.0806C47.7327 83.0806 47.8124 81.3591 47.8124 80.4188C47.8124 79.4785 47.7327 77.7426 46.7767 77.7426C45.8207 77.7426 45.741 79.4785 45.741 80.4188Z"
    fill="#231815" />
  <path
    d="M51.5711 83.6448V80.8601C51.5711 80.1368 51.5132 79.3556 50.8469 79.3556C50.4558 79.3556 49.8329 79.6666 49.8329 80.8022V83.6303H49.239V78.7987H49.8329V79.4496C49.9304 79.2278 50.0876 79.0373 50.2871 78.8994C50.4866 78.7614 50.7205 78.6815 50.9627 78.6685C51.2231 78.6672 51.4756 78.7569 51.6767 78.922C51.8777 79.0871 52.0146 79.3173 52.0636 79.5726C52.1503 79.3134 52.3152 79.0874 52.5356 78.9255C52.7561 78.7636 53.0213 78.6738 53.2949 78.6685C53.58 78.6688 53.8548 78.7748 54.0662 78.9658C54.2776 79.1569 54.4105 79.4195 54.4392 79.7028C54.507 80.0529 54.5338 80.4097 54.5188 80.766V83.6593H53.9032V80.8818C53.9032 80.2742 53.9032 79.3773 53.179 79.3773C52.9617 79.3773 52.165 79.4713 52.165 80.9903V83.6593L51.5711 83.6448Z"
    fill="#231815" />
  <path
    d="M42.9816 71.4499V72.1732H39.5125C42.0111 68.7447 42.1487 68.1155 42.1487 67.4645C42.1487 66.8135 41.8083 66.2855 41.2579 66.2855C41.0841 66.2855 40.4757 66.2855 40.0122 67.2258L39.7659 66.4374C39.9123 66.1811 40.1227 65.9672 40.3766 65.8163C40.6304 65.6655 40.9191 65.5829 41.2145 65.5767C41.9387 65.5767 42.7788 66.1119 42.7788 67.4356C42.7788 68.7592 42.1632 69.5404 40.7944 71.4644L42.9816 71.4499Z"
    fill="#231815" />
  <path
    d="M46.9069 68.9254C46.9069 70.777 46.4941 72.2887 45.2049 72.2887C43.9158 72.2887 43.5029 70.777 43.5029 68.9254C43.5029 67.0737 43.9158 65.562 45.2049 65.562C46.4941 65.562 46.9069 67.0737 46.9069 68.9254ZM44.1692 68.9254C44.1692 69.8801 44.2489 71.5944 45.2049 71.5944C46.1609 71.5944 46.2406 69.8657 46.2406 68.9254C46.2406 67.9851 46.1609 66.2709 45.2049 66.2709C44.2489 66.2709 44.1692 67.9923 44.1692 68.9254Z"
    fill="#231815" />
  <path
    d="M50.8398 68.9254C50.8398 70.777 50.4197 72.2887 49.1378 72.2887C47.8559 72.2887 47.4358 70.777 47.4358 68.9254C47.4358 67.0737 47.8486 65.562 49.1378 65.562C50.427 65.562 50.8398 67.0737 50.8398 68.9254ZM48.1021 68.9254C48.1021 69.8801 48.1818 71.5944 49.1378 71.5944C50.0938 71.5944 50.1735 69.8657 50.1735 68.9254C50.1735 67.9851 50.0938 66.2709 49.1378 66.2709C48.1818 66.2709 48.1093 67.9923 48.1093 68.9254H48.1021Z"
    fill="#231815" />
  <path
    d="M53.9034 72.1587V69.3668C53.9034 68.6435 53.8455 67.8695 53.1791 67.8695C52.788 67.8695 52.1652 68.1806 52.1652 69.3161V72.1443H51.5713V67.3271H52.1652V67.9708C52.263 67.7498 52.4205 67.5603 52.6201 67.4236C52.8196 67.287 53.0533 67.2084 53.295 67.1969C53.5543 67.1953 53.806 67.2839 54.0069 67.4476C54.2079 67.6113 54.3454 67.8398 54.3959 68.0938C54.4847 67.8365 54.6503 67.6126 54.8705 67.4522C55.0906 67.2918 55.3547 67.2027 55.6271 67.1969C55.9172 67.1899 56.1992 67.2926 56.4167 67.4844C56.6343 67.6761 56.7713 67.9429 56.8004 68.2312C56.8686 68.5813 56.8954 68.9381 56.8801 69.2944V72.1877H56.2862V69.4029C56.2862 68.7954 56.2862 67.9057 55.5619 67.9057C55.3447 67.9057 54.548 67.9925 54.548 69.5114V72.1877L53.9034 72.1587Z"
    fill="#231815" />
  <path
    d="M41.504 59.4069C41.8743 59.6883 42.3279 59.8385 42.7932 59.8337C42.9707 59.8385 43.1472 59.8046 43.3104 59.7344C43.4736 59.6643 43.6195 59.5595 43.738 59.4273C43.8565 59.2952 43.9449 59.1389 43.9968 58.9692C44.0488 58.7996 44.0631 58.6207 44.0389 58.4449C44.0389 57.4902 43.5464 57.0634 42.967 57.0634C42.8216 57.0585 42.677 57.0865 42.5441 57.1454C42.4111 57.2043 42.2932 57.2925 42.1993 57.4034H41.6488V53.9387H44.2996V54.662H42.3152V56.6077C42.5327 56.4743 42.7842 56.4065 43.0394 56.4124C43.8433 56.4124 44.7342 56.9766 44.7342 58.4449C44.7342 59.689 44.0823 60.5497 42.8294 60.5497C42.3158 60.5546 41.8121 60.4087 41.3809 60.1302L41.504 59.4069Z"
    fill="#231815" />
  <path
    d="M48.6524 57.1645C48.6524 59.0234 48.2396 60.5278 46.9504 60.5278C45.6612 60.5278 45.2556 59.0234 45.2556 57.1645C45.2556 55.3056 45.6684 53.8083 46.9504 53.8083C48.2323 53.8083 48.6524 55.3201 48.6524 57.1645ZM45.9147 57.1645C45.9147 58.1192 46.0016 59.8335 46.9504 59.8335C47.8992 59.8335 47.9861 58.112 47.9861 57.1645C47.9861 56.217 47.9064 54.51 46.9504 54.51C45.9944 54.51 45.9364 56.2314 45.9364 57.1645H45.9147Z"
    fill="#231815" />
  <path
    d="M52.5852 57.1645C52.5852 59.0234 52.1724 60.5278 50.8832 60.5278C49.5941 60.5278 49.1885 59.0234 49.1885 57.1645C49.1885 55.3056 49.6013 53.8083 50.8832 53.8083C52.1652 53.8083 52.5852 55.3201 52.5852 57.1645ZM49.8476 57.1645C49.8476 58.1192 49.9345 59.8335 50.8832 59.8335C51.832 59.8335 51.9189 58.112 51.9189 57.1645C51.9189 56.217 51.8393 54.51 50.8832 54.51C49.9272 54.51 49.8476 56.2314 49.8476 57.1645Z"
    fill="#231815" />
  <path
    d="M55.6851 60.3833V57.5985C55.6851 56.8752 55.6199 56.0941 54.9609 56.0941C54.5698 56.0941 53.9542 56.4051 53.9542 57.5407V60.3833H53.353V55.5516H53.9542V56.2026C54.049 55.9803 54.2046 55.7891 54.4031 55.651C54.6017 55.5128 54.8351 55.4333 55.0768 55.4214C55.3371 55.4201 55.5896 55.5098 55.7907 55.6749C55.9917 55.8401 56.1286 56.0702 56.1776 56.3255C56.2665 56.0663 56.433 55.8406 56.6545 55.6789C56.876 55.5172 57.1418 55.4273 57.4161 55.4214C57.7003 55.4249 57.9734 55.532 58.1841 55.7224C58.3949 55.9129 58.5287 56.1737 58.5604 56.4557C58.6283 56.8059 58.655 57.1627 58.6401 57.519V60.4122H58.0317V57.6347C58.0317 57.0271 58.0317 56.1302 57.3075 56.1302C57.0974 56.1302 56.2935 56.2243 56.2935 57.7432V60.3833H55.6851Z"
    fill="#231815" />
  <path d="M40.3379 42.3008H40.9391V48.8105H40.2655V43.1687L39.1864 44.0295L39.1067 43.3062L40.3379 42.3008Z"
    fill="#231815" />
  <path
    d="M46.0452 45.5412C46.0452 47.4001 45.6324 48.9046 44.3504 48.9046C43.0685 48.9046 42.6484 47.4001 42.6484 45.5412C42.6484 43.6823 43.0613 42.1851 44.3504 42.1851C45.6396 42.1851 46.0452 43.6895 46.0452 45.5412ZM43.3148 45.5412C43.3148 46.496 43.3944 48.2102 44.3504 48.2102C45.3065 48.2102 45.3861 46.4887 45.3861 45.5412C45.3861 44.5937 45.2992 42.8867 44.3504 42.8867C43.4017 42.8867 43.3148 44.6081 43.3148 45.5412V45.5412Z"
    fill="#231815" />
  <path
    d="M49.9778 45.5412C49.9778 47.4001 49.565 48.9046 48.2831 48.9046C47.0011 48.9046 46.5811 47.4001 46.5811 45.5412C46.5811 43.6823 46.9939 42.1851 48.2831 42.1851C49.5722 42.1851 49.9778 43.6895 49.9778 45.5412ZM47.2474 45.5412C47.2474 46.496 47.327 48.2102 48.2831 48.2102C49.2391 48.2102 49.3115 46.4887 49.3115 45.5412C49.3115 44.5937 49.2318 42.8867 48.2831 42.8867C47.3343 42.8867 47.2474 44.6081 47.2474 45.5412Z"
    fill="#231815" />
  <path
    d="M53.9034 45.5412C53.9034 47.4001 53.4905 48.9046 52.2014 48.9046C50.9122 48.9046 50.5066 47.4001 50.5066 45.5412C50.5066 43.6823 50.9194 42.1851 52.2014 42.1851C53.4833 42.1851 53.9034 43.6895 53.9034 45.5412ZM51.1657 45.5412C51.1657 46.496 51.2526 48.2102 52.2014 48.2102C53.1501 48.2102 53.237 46.4887 53.237 45.5412C53.237 44.5937 53.1574 42.8867 52.2014 42.8867C51.2453 42.8867 51.1729 44.6081 51.1729 45.5412H51.1657Z"
    fill="#231815" />
  <path
    d="M57.0105 48.8103V45.9894C57.0105 45.2661 56.9453 44.4849 56.2862 44.4849C55.8879 44.4849 55.2723 44.796 55.2723 45.9315V48.8103H54.6711V43.9786H55.2723V44.6296C55.3685 44.4083 55.5245 44.218 55.7227 44.0801C55.9209 43.9422 56.1537 43.862 56.3949 43.8484C56.6544 43.8414 56.9084 43.9239 57.1141 44.082C57.3199 44.2401 57.4649 44.4641 57.5247 44.7164C57.6114 44.4572 57.7763 44.2311 57.9967 44.0693C58.2172 43.9074 58.4824 43.8176 58.7559 43.8123C59.0401 43.8158 59.3133 43.9228 59.524 44.1133C59.7347 44.3037 59.8685 44.5645 59.9003 44.8466C59.9681 45.1967 59.9949 45.5535 59.9799 45.9098V48.8031H59.3788V46.0256C59.3788 45.418 59.3788 44.5211 58.6546 44.5211C58.4445 44.5211 57.6406 44.6151 57.6406 46.1341V48.8103H57.0105Z"
    fill="#231815" />
  <path
    d="M43.0901 36.102V36.8253H39.6282C42.1196 33.3968 42.2572 32.7676 42.2572 32.1166C42.2572 31.4656 41.9168 30.9376 41.3664 30.9376C41.1926 30.9376 40.5842 30.9376 40.1207 31.8779L39.8744 31.0895C40.0213 30.8337 40.2319 30.6201 40.4856 30.4693C40.7393 30.3186 41.0277 30.2357 41.3229 30.2288C42.0472 30.2288 42.8946 30.764 42.8946 32.0949C42.8946 33.4258 42.2717 34.1925 40.9029 36.1165L43.0901 36.102Z"
    fill="#231815" />
  <path
    d="M47.0157 33.5777C47.0157 35.4294 46.6028 36.9411 45.3137 36.9411C44.0245 36.9411 43.6189 35.4294 43.6189 33.5777C43.6189 31.7261 44.0317 30.2144 45.3137 30.2144C46.5956 30.2144 47.0157 31.7261 47.0157 33.5777ZM44.278 33.5777C44.278 34.5325 44.3649 36.2467 45.3137 36.2467C46.2624 36.2467 46.3493 34.5253 46.3493 33.5777C46.3493 32.6302 46.2697 30.9232 45.3137 30.9232C44.3576 30.9232 44.278 32.6447 44.278 33.5777Z"
    fill="#231815" />
  <path
    d="M50.9483 33.5777C50.9483 35.4294 50.5354 36.9411 49.2463 36.9411C47.9571 36.9411 47.5515 35.4294 47.5515 33.5777C47.5515 31.7261 47.9643 30.2144 49.2463 30.2144C50.5282 30.2144 50.9483 31.7261 50.9483 33.5777ZM48.2106 33.5777C48.2106 34.5325 48.2903 36.2467 49.2463 36.2467C50.2023 36.2467 50.282 34.5253 50.282 33.5777C50.282 32.6302 50.2023 30.9232 49.2463 30.9232C48.2903 30.9232 48.2106 32.6447 48.2106 33.5777Z"
    fill="#231815" />
  <path
    d="M54.8811 33.5777C54.8811 35.4294 54.4682 36.9411 53.1791 36.9411C51.8899 36.9411 51.4771 35.4294 51.4771 33.5777C51.4771 31.7261 51.8899 30.2144 53.1791 30.2144C54.4682 30.2144 54.8811 31.7261 54.8811 33.5777ZM52.1434 33.5777C52.1434 34.5325 52.223 36.2467 53.1791 36.2467C54.1351 36.2467 54.2147 34.5253 54.2147 33.5777C54.2147 32.6302 54.1351 30.9232 53.1791 30.9232C52.223 30.9232 52.1434 32.6447 52.1434 33.5777Z"
    fill="#231815" />
  <path
    d="M57.9737 36.8108V34.0189C57.9737 33.2956 57.9158 32.5216 57.2495 32.5216C56.8584 32.5216 56.2355 32.8327 56.2355 33.9682V36.7964H55.6416V31.9647H56.2355V32.6084C56.3333 32.3874 56.4909 32.198 56.6904 32.0613C56.8899 31.9246 57.1236 31.8461 57.3653 31.8345C57.6246 31.8329 57.8763 31.9216 58.0773 32.0852C58.2782 32.2489 58.4157 32.4774 58.4662 32.7314C58.5559 32.4747 58.7217 32.2513 58.9417 32.0911C59.1617 31.9309 59.4253 31.8414 59.6974 31.8345C59.9871 31.8355 60.2658 31.9455 60.4779 32.1426C60.69 32.3396 60.8199 32.6093 60.8418 32.8978C60.9136 33.2473 60.9404 33.6046 60.9214 33.961V36.8542H60.3275V34.0695C60.3275 33.4619 60.3275 32.5723 59.6033 32.5723C59.386 32.5723 58.5893 32.6591 58.5893 34.178V36.8542L57.9737 36.8108Z"
    fill="#231815" />
  <path
    d="M42.8658 25.1801V23.7335H40.5989V23.0825L42.8441 18.7427H43.5249V23.0825H44.1405V23.7552H43.5249V25.2018L42.8658 25.1801ZM42.8658 23.068V19.9506L41.258 23.068H42.8658Z"
    fill="#231815" />
  <path
    d="M47.9934 21.9542C47.9934 23.8058 47.5805 25.3103 46.2914 25.3103C45.0022 25.3103 44.5894 23.8058 44.5894 21.9542C44.5894 20.1025 45.0022 18.5908 46.2914 18.5908C47.5805 18.5908 47.9934 20.0953 47.9934 21.9542ZM45.2557 21.9542C45.2557 22.9017 45.3353 24.6159 46.2914 24.6159C47.2474 24.6159 47.327 22.8945 47.327 21.9542C47.327 21.0139 47.2474 19.2924 46.2914 19.2924C45.3353 19.2924 45.2557 21.0139 45.2557 21.9542Z"
    fill="#231815" />
  <path
    d="M51.919 21.9542C51.919 23.8058 51.5062 25.3103 50.2242 25.3103C48.9423 25.3103 48.5222 23.8058 48.5222 21.9542C48.5222 20.1025 48.935 18.5908 50.2242 18.5908C51.5134 18.5908 51.919 20.0953 51.919 21.9542ZM49.1885 21.9542C49.1885 22.9017 49.2682 24.6159 50.2242 24.6159C51.1802 24.6159 51.2599 22.8945 51.2599 21.9542C51.2599 21.0139 51.173 19.2924 50.2242 19.2924C49.2754 19.2924 49.1885 21.0139 49.1885 21.9542V21.9542Z"
    fill="#231815" />
  <path
    d="M55.8516 21.9542C55.8516 23.8058 55.4388 25.3103 54.1568 25.3103C52.8749 25.3103 52.4548 23.8058 52.4548 21.9542C52.4548 20.1025 52.8677 18.5908 54.1568 18.5908C55.446 18.5908 55.8516 20.0953 55.8516 21.9542ZM53.1211 21.9542C53.1211 22.9017 53.2008 24.6159 54.1568 24.6159C55.1129 24.6159 55.1925 22.8945 55.1925 21.9542C55.1925 21.0139 55.1056 19.2924 54.1568 19.2924C53.2081 19.2924 53.1211 21.0139 53.1211 21.9542Z"
    fill="#231815" />
  <path
    d="M58.9732 25.18V22.3952C58.9732 21.6719 58.9153 20.8908 58.249 20.8908C57.8579 20.8908 57.235 21.2018 57.235 22.3374V25.1655H56.6411V20.3411H57.235V20.9848C57.3313 20.7635 57.4872 20.5733 57.6854 20.4353C57.8837 20.2974 58.1164 20.2172 58.3576 20.2036C58.6188 20.2021 58.8723 20.2915 59.0746 20.4565C59.2769 20.6216 59.4152 20.8519 59.4657 21.1078C59.5542 20.8497 59.7195 20.6248 59.9396 20.4632C60.1597 20.3016 60.4239 20.211 60.6969 20.2036C60.9811 20.2071 61.2543 20.3142 61.465 20.5047C61.6757 20.6951 61.8095 20.9559 61.8413 21.238C61.9094 21.5905 61.9362 21.9497 61.9209 22.3085V25.2017H61.3271V22.4242C61.3271 21.8166 61.3271 20.9197 60.6028 20.9197C60.3928 20.9197 59.5961 21.0137 59.5961 22.5327V25.2017L58.9732 25.18Z"
    fill="#231815" />
  <path
    d="M44.5315 7.50966C44.2854 7.48379 44.0367 7.51856 43.8072 7.61092C42.9961 7.95811 42.5977 9.15156 42.5253 10.1425C42.6336 9.90058 42.8064 9.69305 43.0248 9.54254C43.2433 9.39203 43.4989 9.30432 43.7638 9.28899C44.6039 9.28899 45.3354 10.0846 45.3354 11.3649C45.3354 12.6451 44.6111 13.5348 43.6551 13.5348C42.6991 13.5348 41.8662 12.6234 41.8662 10.6416C41.8662 8.65971 42.6701 6.64893 44.5242 6.80082L44.5315 7.50966ZM43.6913 9.97613C43.528 9.98779 43.3688 10.0323 43.2231 10.1069C43.0774 10.1815 42.9482 10.2846 42.8434 10.4103C42.7386 10.5359 42.6602 10.6813 42.6131 10.8379C42.5659 10.9945 42.5508 11.1589 42.5687 11.3215C42.5687 11.9869 42.9309 12.8332 43.6696 12.8332C44.2852 12.8332 44.6836 12.1894 44.6836 11.3866C44.6836 10.4101 44.2128 9.97613 43.6913 9.97613Z"
    fill="#231815" />
  <path
    d="M49.2246 10.1642C49.2246 12.0158 48.8118 13.5275 47.5299 13.5275C46.2479 13.5275 45.8279 12.0158 45.8279 10.1642C45.8279 8.31249 46.2407 6.80078 47.5299 6.80078C48.8191 6.80078 49.2246 8.30526 49.2246 10.1642ZM46.4942 10.1642C46.4942 11.1189 46.5739 12.8331 47.5299 12.8331C48.4859 12.8331 48.5656 11.1117 48.5656 10.1642C48.5656 9.21662 48.4859 7.50962 47.5299 7.50962C46.5739 7.50962 46.4942 9.23109 46.4942 10.1642V10.1642Z"
    fill="#231815" />
  <path
    d="M53.179 10.1642C53.179 12.0158 52.7662 13.5275 51.4842 13.5275C50.2023 13.5275 49.7822 12.0158 49.7822 10.1642C49.7822 8.31249 50.1951 6.80078 51.4842 6.80078C52.7734 6.80078 53.179 8.30526 53.179 10.1642ZM50.4485 10.1642C50.4485 11.1189 50.5282 12.8331 51.4842 12.8331C52.4403 12.8331 52.5199 11.1117 52.5199 10.1642C52.5199 9.21662 52.433 7.50962 51.4842 7.50962C50.5355 7.50962 50.4268 9.23109 50.4268 10.1642H50.4485Z"
    fill="#231815" />
  <path
    d="M57.0901 10.1642C57.0901 12.0158 56.6773 13.5275 55.3954 13.5275C54.1134 13.5275 53.6934 12.0158 53.6934 10.1642C53.6934 8.31249 54.1062 6.80078 55.3954 6.80078C56.6845 6.80078 57.0901 8.30526 57.0901 10.1642ZM54.3597 10.1642C54.3597 11.1189 54.4393 12.8331 55.3954 12.8331C56.3514 12.8331 56.4238 11.1117 56.4238 10.1642C56.4238 9.21662 56.3441 7.50962 55.3954 7.50962C54.4466 7.50962 54.3597 9.23109 54.3597 10.1642V10.1642Z"
    fill="#231815" />
  <path
    d="M60.1899 13.3684V10.5764C60.1899 9.85312 60.132 9.07919 59.4657 9.07919C59.0673 9.07919 58.4517 9.39021 58.4517 10.5258V13.3684H57.8506V8.53671H58.4517V9.18046C58.549 8.9605 58.7054 8.77175 58.9036 8.63514C59.1017 8.49853 59.3339 8.4194 59.5743 8.40651C59.8355 8.40495 60.089 8.49438 60.2913 8.65941C60.4936 8.82444 60.6319 9.05474 60.6824 9.31064C60.7691 9.05145 60.934 8.8254 61.1544 8.66352C61.3749 8.50163 61.6401 8.41186 61.9137 8.40651C62.1979 8.41003 62.471 8.51708 62.6817 8.70754C62.8924 8.89801 63.0262 9.15878 63.058 9.44084C63.1262 9.79092 63.1529 10.1478 63.1377 10.5041V13.3973H62.5365V10.6126C62.5365 10.0123 62.5365 9.11535 61.8123 9.11535C61.6022 9.11535 60.7983 9.20215 60.7983 10.7211V13.3684H60.1899Z"
    fill="#231815" />
</svg>