<svg width="137" height="56" viewBox="0 0 137 56" fill="none" xmlns="http://www.w3.org/2000/svg">
  <path
    d="M6.566 13.816C6.384 15.146 5.502 15.692 3.15 15.986C3.514 16.42 3.696 16.714 3.948 17.316C5.6 16.938 6.412 16.56 7.07 15.874C7.588 15.314 7.84 14.754 7.966 13.816H8.946V15.944C8.946 16.476 9.044 16.686 9.408 16.84C9.744 16.994 10.22 17.05 11.088 17.05C13.16 17.05 13.44 16.798 13.58 14.67C13.02 14.544 12.656 14.418 12.194 14.18C12.194 15.006 12.166 15.398 12.082 15.552C11.998 15.692 11.802 15.734 11.214 15.734C10.444 15.734 10.374 15.706 10.374 15.412V13.816H11.466C12.04 13.816 12.292 13.83 12.642 13.858C12.6 13.55 12.586 13.214 12.586 12.752V10.316C12.586 9.826 12.6 9.532 12.642 9.21C12.278 9.238 11.97 9.252 11.326 9.252H6.44C5.782 9.252 5.474 9.238 5.11 9.21C5.152 9.49 5.166 9.826 5.166 10.316V12.836C5.166 13.368 5.152 13.578 5.124 13.858C5.684 13.83 5.894 13.816 6.328 13.816H6.566ZM6.594 10.386H11.116V10.946H6.594V10.386ZM6.594 12.01H11.116V12.626H6.594V12.01ZM1.974 7.824H1.68C1.26 7.824 0.924 7.81 0.56 7.754V9.252C0.91 9.21 1.26 9.182 1.666 9.182H1.974V13.2C1.134 13.508 0.756 13.62 0.392 13.676L0.7 15.3C0.896 15.202 1.106 15.118 1.344 15.02C2.884 14.39 3.766 14.026 4.718 13.564L4.662 12.066C3.976 12.388 3.78 12.472 3.43 12.626V9.182C3.864 9.182 4.102 9.196 4.396 9.238V7.782C4.088 7.81 3.906 7.824 3.43 7.824V5.962C3.43 5.22 3.444 4.828 3.514 4.394H1.89C1.946 4.814 1.974 5.262 1.974 5.948V7.824ZM9.59 5.36V5.038C9.59 4.688 9.604 4.506 9.66 4.212H8.022C8.064 4.478 8.092 4.716 8.092 5.052V5.36H6.412C5.796 5.36 5.348 5.346 4.914 5.29V6.592C5.292 6.55 5.474 6.536 6.132 6.536C6.314 6.914 6.384 7.124 6.51 7.502H5.936C5.362 7.502 5.138 7.488 4.69 7.446V8.804C5.11 8.762 5.278 8.762 5.978 8.762H11.914C12.586 8.762 12.908 8.776 13.384 8.832V7.432C12.978 7.488 12.698 7.502 11.97 7.502H11.158C11.34 7.152 11.41 7.012 11.606 6.536C12.32 6.536 12.558 6.55 13.034 6.592V5.29C12.628 5.332 12.138 5.36 11.522 5.36H9.59ZM7.98 7.502C7.868 7.18 7.742 6.858 7.602 6.536H10.094C9.954 6.928 9.856 7.124 9.674 7.502H7.98ZM18.354 10.442C17.5 11.394 16.17 12.122 14.378 12.612C14.742 13.116 14.868 13.34 15.162 14.04C16.59 13.508 17.472 13.032 18.382 12.318C18.382 12.402 18.396 12.472 18.396 12.5C18.396 13.578 18.116 14.334 17.542 14.824C16.954 15.342 16.31 15.622 14.98 15.986C15.512 16.588 15.624 16.756 15.918 17.274C18.76 16.364 19.81 15.132 19.908 12.528C19.922 12.206 19.936 12.038 19.964 11.884H18.914C19.544 11.324 19.81 11.016 20.216 10.442H21.672C22.19 11.1 22.4 11.324 23.058 11.884H22.246C22.288 12.192 22.316 12.472 22.316 12.99V15.594C22.316 16.266 22.288 16.714 22.232 17.148H23.926C23.856 16.686 23.842 16.224 23.842 15.608V12.5C24.64 13.074 25.662 13.578 26.894 14.04C27.146 13.354 27.3 13.046 27.636 12.528C25.858 12.066 24.486 11.366 23.534 10.442H24.766C25.382 10.442 25.816 10.456 26.264 10.498C26.208 10.106 26.194 9.728 26.194 9.042V6.116C26.194 5.402 26.208 5.024 26.264 4.618C25.802 4.674 25.424 4.688 24.752 4.688H17.248C16.576 4.688 16.184 4.674 15.75 4.618C15.792 5.066 15.82 5.416 15.82 6.116V9.042C15.82 9.7 15.792 10.064 15.75 10.498C16.17 10.456 16.618 10.442 17.22 10.442H18.354ZM17.318 5.962H20.216V7.026H17.318V5.962ZM17.318 8.216H20.216V9.266H17.318V8.216ZM21.658 5.962H24.682V7.026H21.658V5.962ZM21.658 8.216H24.682V9.266H21.658V8.216ZM36.092 7.026C36.708 7.082 37.072 7.194 37.506 7.446C38.626 8.118 39.228 9.21 39.228 10.554C39.228 12.052 38.5 13.382 37.282 14.054C36.624 14.432 35.784 14.656 34.496 14.824C34.944 15.412 35.112 15.72 35.35 16.462C36.33 16.294 36.876 16.154 37.548 15.874C39.69 15.006 40.95 13.074 40.95 10.652C40.95 7.502 38.766 5.458 35.406 5.458C33.418 5.458 31.766 6.13 30.59 7.418C29.596 8.51 29.05 9.952 29.05 11.492C29.05 13.746 30.198 15.37 31.794 15.37C32.942 15.37 33.838 14.544 34.636 12.738C35.336 11.156 35.826 9.224 36.092 7.026ZM34.384 7.04C34.216 8.622 33.754 10.512 33.222 11.772C32.718 12.976 32.242 13.564 31.78 13.564C31.164 13.564 30.674 12.654 30.674 11.506C30.674 10.008 31.402 8.566 32.578 7.726C33.152 7.32 33.656 7.124 34.384 7.04ZM43.134 5.976C43.484 5.934 43.792 5.92 44.296 5.92H46.704C47.222 5.92 47.474 5.934 47.866 5.976V4.59C47.488 4.646 47.264 4.66 46.704 4.66H44.296C43.736 4.66 43.512 4.646 43.134 4.59V5.976ZM42.658 8.034C42.994 7.992 43.288 7.978 43.778 7.978H47.292C47.866 7.978 48.062 7.992 48.356 8.034V6.592C48.048 6.634 47.81 6.648 47.236 6.648H43.778C43.26 6.648 42.994 6.634 42.658 6.578V8.034ZM43.19 9.994C43.47 9.966 43.666 9.952 44.114 9.952H46.998C47.418 9.952 47.586 9.966 47.894 9.994V8.692C47.642 8.72 47.46 8.734 46.998 8.734H44.114C43.652 8.734 43.47 8.72 43.19 8.692V9.994ZM43.19 11.968C43.456 11.94 43.68 11.926 44.1 11.926H46.97C47.432 11.926 47.572 11.926 47.894 11.968V10.666C47.642 10.694 47.46 10.708 46.998 10.708H44.114C43.652 10.708 43.47 10.694 43.19 10.666V11.968ZM44.646 17.218V16.462H46.536V17.022H47.964C47.936 16.784 47.908 16.364 47.908 16.028V13.676C47.908 13.158 47.908 12.976 47.95 12.668C47.712 12.71 47.558 12.71 47.012 12.71H44.268C43.736 12.71 43.526 12.696 43.176 12.668C43.232 13.018 43.246 13.326 43.246 13.774V15.846C43.246 16.336 43.218 16.784 43.162 17.218H44.646ZM44.618 13.9H46.536V15.216H44.618V13.9ZM50.302 10.554H53.438C54.068 10.554 54.39 10.568 54.838 10.61C54.796 10.204 54.782 9.812 54.782 9.224V6.13C54.782 5.458 54.796 5.206 54.838 4.716C54.432 4.758 54.026 4.772 53.41 4.772H50.022C49.434 4.772 49 4.744 48.552 4.688V6.27C48.972 6.228 49.392 6.2 50.008 6.2H53.242V9.168H50.092C49.49 9.168 49.112 9.154 48.692 9.112C48.734 9.546 48.748 9.812 48.748 10.484V15.426C48.748 16.616 49.252 16.84 51.814 16.84C53.732 16.84 54.474 16.686 54.838 16.196C55.216 15.692 55.37 14.978 55.482 13.354C55.006 13.27 54.474 13.088 53.942 12.836C53.914 14.278 53.816 14.908 53.606 15.118C53.396 15.328 52.962 15.398 51.856 15.398C51.31 15.398 50.89 15.37 50.624 15.314C50.372 15.258 50.302 15.174 50.302 14.894V10.554ZM59.78 10.904C59.36 11.926 58.8 12.892 58.002 13.956L59.682 14.264C60.018 13.746 60.13 13.564 60.326 13.214H65.94C65.8 14.432 65.646 15.062 65.436 15.342C65.268 15.552 64.96 15.636 64.274 15.636C63.77 15.636 62.748 15.552 61.796 15.44C62.062 16.028 62.16 16.448 62.174 16.938C63.028 16.994 63.56 17.022 64.288 17.022C65.758 17.022 66.29 16.868 66.724 16.336C67.102 15.874 67.368 14.782 67.606 12.766C67.676 12.164 67.704 11.954 67.718 11.87C67.34 11.912 67.018 11.926 66.276 11.926H60.998C61.18 11.562 61.25 11.394 61.46 10.904H67.76C68.46 10.904 69.006 10.932 69.412 10.988V9.476C69.006 9.532 68.474 9.56 67.76 9.56H58.24C57.526 9.56 56.994 9.532 56.602 9.476V10.988C57.022 10.932 57.554 10.904 58.226 10.904H59.78ZM58.38 7.586C58.38 8.076 58.366 8.384 58.324 8.776C58.744 8.734 59.08 8.72 59.766 8.72H66.234C66.948 8.72 67.256 8.734 67.676 8.776C67.634 8.398 67.62 8.104 67.62 7.586V5.766C67.62 5.29 67.634 4.94 67.676 4.604C67.298 4.66 66.878 4.674 66.08 4.674H59.906C59.262 4.674 58.814 4.66 58.324 4.604C58.366 4.996 58.38 5.29 58.38 5.766V7.586ZM66.08 5.99V7.432H59.878V5.99H66.08Z"
    fill="black" />
  <path d="M8 30H34.9713" stroke="#ED86B3" stroke-width="1.7" />
  <path d="M8 30H34.725" stroke="#231815" stroke-width="0.57" stroke-dasharray="5.67 1.42 1.42 1.42 1.42 1.42" />
  <path d="M8 30H34.725" stroke="#231815" stroke-width="0.57" stroke-dasharray="5.67 1.42 1.42 1.42 1.42 1.42" />
  <path
    d="M41.8752 27.332V28.136H48.0312V27.332H41.8752ZM42.2112 29.84V30.632H47.7432V29.84H42.2112ZM41.6952 32.66V33.428H48.2952V32.66H41.6952ZM44.4792 27.584V33.068H45.3192V27.584H44.4792ZM46.0752 31.16C46.5072 31.568 47.0232 32.156 47.2632 32.528L47.8752 32.156C47.6352 31.784 47.1072 31.232 46.6512 30.836L46.0752 31.16ZM39.9912 25.472V35.972H40.9032V26.3H48.9792V35.972H49.9392V25.472H39.9912ZM40.4832 34.532V35.36H49.4232V34.532H40.4832ZM57.7272 26.816L56.7312 26.792C56.6112 28.04 56.3592 29.396 56.0112 30.536C55.3992 32.564 54.7512 33.38 54.1872 33.38C53.6472 33.38 52.9632 32.708 52.9632 31.196C52.9632 29.432 54.6072 27.26 57.2472 27.26C59.5512 27.26 60.8832 28.844 60.8832 30.764C60.8832 32.84 59.3712 33.992 57.8352 34.34C57.5472 34.4 57.1872 34.448 56.8032 34.484L57.3552 35.372C60.2112 35 61.8672 33.32 61.8672 30.812C61.8672 28.376 60.0792 26.396 57.2712 26.396C54.3312 26.396 52.0152 28.664 52.0152 31.268C52.0152 33.26 53.0832 34.484 54.1632 34.484C55.2672 34.484 56.2272 33.212 56.9592 30.752C57.3312 29.468 57.5712 28.064 57.7272 26.816ZM67.4712 25.868V26.6H74.2032V25.868H67.4712ZM67.0872 27.992V28.748H74.4792V27.992H67.0872ZM70.3152 24.944V26.348H71.2032V24.944H70.3152ZM72.2112 26.552C72.0792 26.936 71.8272 27.524 71.6112 27.896L72.3912 28.076C72.5952 27.74 72.8472 27.236 73.0872 26.756L72.2112 26.552ZM68.6232 26.744C68.8512 27.164 69.0552 27.716 69.1152 28.076L69.9432 27.848C69.8592 27.488 69.6432 26.948 69.3912 26.564L68.6232 26.744ZM68.7912 31.472H72.9192V32.372H68.7912V31.472ZM68.7912 29.996H72.9192V30.884H68.7912V29.996ZM67.9392 29.372V32.996H73.7952V29.372H67.9392ZM71.2872 32.756V34.808C71.2872 35.648 71.5032 35.888 72.3672 35.888C72.5472 35.888 73.3752 35.888 73.5552 35.888C74.2632 35.888 74.4912 35.564 74.5752 34.22C74.3472 34.172 73.9872 34.028 73.8072 33.896C73.7832 34.964 73.7352 35.108 73.4592 35.108C73.2792 35.108 72.6192 35.108 72.4872 35.108C72.1992 35.108 72.1512 35.06 72.1512 34.796V32.756H71.2872ZM69.1992 32.732C68.9712 34.004 68.3712 34.796 66.2712 35.216C66.4392 35.384 66.6792 35.756 66.7752 35.972C69.0912 35.408 69.8112 34.376 70.0872 32.732H69.1992ZM63.5952 27.86V28.712H67.1112V27.86H63.5952ZM64.9992 25.052V32.876H65.8392V25.052H64.9992ZM63.3672 33.152L63.6912 34.052C64.7472 33.548 66.1392 32.9 67.4352 32.264L67.2312 31.46C65.8152 32.108 64.3392 32.768 63.3672 33.152ZM77.7432 28.076H84.1752V29.384H77.7432V28.076ZM77.7432 26.072H84.1752V27.356H77.7432V26.072ZM76.8432 25.316V30.128H85.0992V25.316H76.8432ZM82.2912 29.636L81.5232 29.924C82.4712 31.292 84.1872 32.432 85.9032 32.984C86.0352 32.744 86.2992 32.396 86.5032 32.216C84.8232 31.772 83.1312 30.8 82.2912 29.636ZM79.6992 29.636C78.8352 30.788 77.1192 31.82 75.4992 32.288C75.7032 32.468 75.9672 32.804 76.1112 33.032C77.7552 32.444 79.5192 31.292 80.4792 29.96L79.6992 29.636ZM78.7032 31.748V32.468C78.7032 33.356 78.4872 34.52 76.3752 35.312C76.5792 35.492 76.8672 35.804 76.9992 36.032C79.3272 35.096 79.6152 33.644 79.6152 32.492V31.748H78.7032ZM80.4912 25.712V29.792H81.4032V25.712H80.4912ZM82.5192 31.748V35.936H83.4432V31.748H82.5192Z"
    fill="black" />
  <path d="M8 48H36.0142" stroke="#ED86B3" stroke-width="1.42" stroke-dasharray="3.54 1.42" />
  <path
    d="M46.9982 49.316V53.96H47.8862V49.316H46.9982ZM43.4702 49.076L43.5902 49.94C45.4502 49.892 48.1862 49.784 50.7662 49.664L50.7902 48.884C48.1142 48.98 45.2582 49.052 43.4702 49.076ZM50.2862 43.232C48.8102 43.676 46.1222 44.012 43.8782 44.204C43.9742 44.396 44.0942 44.72 44.1182 44.936C46.4102 44.768 49.1582 44.444 50.9222 43.952L50.2862 43.232ZM49.0502 45.212C48.0902 46.52 46.4702 48.272 45.2342 49.316L45.8942 49.7C47.1302 48.656 48.7382 47 49.8662 45.608L49.0502 45.212ZM46.7582 44.192C46.3382 44.924 45.5942 45.968 45.0062 46.592L45.6302 46.952C46.2062 46.364 46.9742 45.416 47.5862 44.624L46.7582 44.192ZM48.9782 50.96C49.6622 51.704 50.4302 52.76 50.7302 53.432L51.4982 53.024C51.1622 52.352 50.3942 51.332 49.6982 50.6L48.9782 50.96ZM48.9662 47.72C49.7582 48.56 50.6102 49.724 50.9582 50.48L51.7382 50.108C51.3542 49.34 50.4782 48.212 49.6742 47.384L48.9662 47.72ZM43.9262 46.424C44.8862 47.012 46.0382 47.9 46.5662 48.524L47.1182 47.864C46.5662 47.252 45.4022 46.412 44.4422 45.848L43.9262 46.424ZM43.0382 42.992C42.3902 44.84 41.3222 46.664 40.1822 47.84C40.3382 48.056 40.5902 48.524 40.6742 48.728C41.9462 47.372 43.1222 45.308 43.8782 43.244L43.0382 42.992ZM41.9462 46.088V53.972H42.8102V45.248L42.7982 45.224L41.9462 46.088ZM45.1142 50.624C44.7662 51.404 44.0582 52.376 43.3862 53C43.5902 53.108 43.8782 53.312 44.0582 53.468C44.7542 52.796 45.4862 51.776 45.9542 50.876L45.1142 50.624ZM57.4742 46.508V52.856C57.4742 53.06 57.4022 53.108 57.1742 53.132C56.9462 53.144 56.1662 53.144 55.3022 53.108C55.4462 53.36 55.6022 53.732 55.6502 53.984C56.7422 53.984 57.4022 53.96 57.8222 53.828C58.2422 53.684 58.3862 53.432 58.3862 52.856V46.508H57.4742ZM54.1982 46.04V46.856H61.3142V51.86H62.2262V46.04H54.1982ZM52.5182 48.176V49.004H63.5462V48.176H52.5182ZM53.7062 50.408V51.236H61.7462V50.408H53.7062ZM56.0582 42.908C55.4462 43.988 54.3062 45.308 52.7222 46.256C52.9382 46.388 53.2382 46.676 53.3942 46.88C55.0502 45.788 56.2262 44.408 57.0422 43.088L56.0582 42.908ZM55.9982 43.916L55.3982 44.708H59.4422V43.916H55.9982ZM59.2742 43.916V44.108C58.9262 44.732 58.2182 45.656 57.5942 46.196C57.7742 46.304 58.0622 46.496 58.2302 46.64C58.9262 46.064 59.7782 45.116 60.2822 44.324L59.6342 43.88L59.4782 43.916H59.2742ZM65.1662 45.068V50.78H66.0662V45.956H73.9022V50.72H74.8382V45.068H65.1662ZM65.6462 49.148V50.024H74.4422V49.148H65.6462ZM69.5102 42.92V53.948H70.4462V42.92H69.5102ZM82.7702 44.816L81.7742 44.792C81.6542 46.04 81.4022 47.396 81.0542 48.536C80.4422 50.564 79.7942 51.38 79.2302 51.38C78.6902 51.38 78.0062 50.708 78.0062 49.196C78.0062 47.432 79.6502 45.26 82.2902 45.26C84.5942 45.26 85.9262 46.844 85.9262 48.764C85.9262 50.84 84.4142 51.992 82.8782 52.34C82.5902 52.4 82.2302 52.448 81.8462 52.484L82.3982 53.372C85.2542 53 86.9102 51.32 86.9102 48.812C86.9102 46.376 85.1222 44.396 82.3142 44.396C79.3742 44.396 77.0582 46.664 77.0582 49.268C77.0582 51.26 78.1262 52.484 79.2062 52.484C80.3102 52.484 81.2702 51.212 82.0022 48.752C82.3742 47.468 82.6142 46.064 82.7702 44.816ZM90.9182 45.332V46.136H97.0742V45.332H90.9182ZM91.2542 47.84V48.632H96.7862V47.84H91.2542ZM90.7382 50.66V51.428H97.3382V50.66H90.7382ZM93.5222 45.584V51.068H94.3622V45.584H93.5222ZM95.1182 49.16C95.5502 49.568 96.0662 50.156 96.3062 50.528L96.9182 50.156C96.6782 49.784 96.1502 49.232 95.6942 48.836L95.1182 49.16ZM89.0342 43.472V53.972H89.9462V44.3H98.0222V53.972H98.9822V43.472H89.0342ZM89.5262 52.532V53.36H98.4662V52.532H89.5262ZM106.77 44.816L105.774 44.792C105.654 46.04 105.402 47.396 105.054 48.536C104.442 50.564 103.794 51.38 103.23 51.38C102.69 51.38 102.006 50.708 102.006 49.196C102.006 47.432 103.65 45.26 106.29 45.26C108.594 45.26 109.926 46.844 109.926 48.764C109.926 50.84 108.414 51.992 106.878 52.34C106.59 52.4 106.23 52.448 105.846 52.484L106.398 53.372C109.254 53 110.91 51.32 110.91 48.812C110.91 46.376 109.122 44.396 106.314 44.396C103.374 44.396 101.058 46.664 101.058 49.268C101.058 51.26 102.126 52.484 103.206 52.484C104.31 52.484 105.27 51.212 106.002 48.752C106.374 47.468 106.614 46.064 106.77 44.816ZM116.514 43.868V44.6H123.246V43.868H116.514ZM116.13 45.992V46.748H123.522V45.992H116.13ZM119.358 42.944V44.348H120.246V42.944H119.358ZM121.254 44.552C121.122 44.936 120.87 45.524 120.654 45.896L121.434 46.076C121.638 45.74 121.89 45.236 122.13 44.756L121.254 44.552ZM117.666 44.744C117.894 45.164 118.098 45.716 118.158 46.076L118.986 45.848C118.902 45.488 118.686 44.948 118.434 44.564L117.666 44.744ZM117.834 49.472H121.962V50.372H117.834V49.472ZM117.834 47.996H121.962V48.884H117.834V47.996ZM116.982 47.372V50.996H122.838V47.372H116.982ZM120.33 50.756V52.808C120.33 53.648 120.546 53.888 121.41 53.888C121.59 53.888 122.418 53.888 122.598 53.888C123.306 53.888 123.534 53.564 123.618 52.22C123.39 52.172 123.03 52.028 122.85 51.896C122.826 52.964 122.778 53.108 122.502 53.108C122.322 53.108 121.662 53.108 121.53 53.108C121.242 53.108 121.194 53.06 121.194 52.796V50.756H120.33ZM118.242 50.732C118.014 52.004 117.414 52.796 115.314 53.216C115.482 53.384 115.722 53.756 115.818 53.972C118.134 53.408 118.854 52.376 119.13 50.732H118.242ZM112.638 45.86V46.712H116.154V45.86H112.638ZM114.042 43.052V50.876H114.882V43.052H114.042ZM112.41 51.152L112.734 52.052C113.79 51.548 115.182 50.9 116.478 50.264L116.274 49.46C114.858 50.108 113.382 50.768 112.41 51.152ZM126.786 46.076H133.218V47.384H126.786V46.076ZM126.786 44.072H133.218V45.356H126.786V44.072ZM125.886 43.316V48.128H134.142V43.316H125.886ZM131.334 47.636L130.566 47.924C131.514 49.292 133.23 50.432 134.946 50.984C135.078 50.744 135.342 50.396 135.546 50.216C133.866 49.772 132.174 48.8 131.334 47.636ZM128.742 47.636C127.878 48.788 126.162 49.82 124.542 50.288C124.746 50.468 125.01 50.804 125.154 51.032C126.798 50.444 128.562 49.292 129.522 47.96L128.742 47.636ZM127.746 49.748V50.468C127.746 51.356 127.53 52.52 125.418 53.312C125.622 53.492 125.91 53.804 126.042 54.032C128.37 53.096 128.658 51.644 128.658 50.492V49.748H127.746ZM129.534 43.712V47.792H130.446V43.712H129.534ZM131.562 49.748V53.936H132.486V49.748H131.562Z"
    fill="black" />
</svg>