<svg width="22" height="11" viewBox="0 0 22 11" fill="none" xmlns="http://www.w3.org/2000/svg">
  <rect x="0.25" y="0.25" width="21.5" height="10.5" fill="white" stroke="black" stroke-width="0.5" />
  <circle cx="2" cy="7" r="1" fill="#FF0000" />
  <circle cx="2" cy="7" r="1" fill="#FF0000" />
  <circle cx="3" cy="5" r="1" fill="#FF0000" />
  <circle cx="3" cy="5" r="1" fill="#FF0000" />
  <circle cx="4" cy="4" r="1" fill="#FF0000" />
  <circle cx="4" cy="4" r="1" fill="#FF0000" />
  <circle cx="2" cy="3" r="1" fill="#FF0000" />
  <circle cx="2" cy="3" r="1" fill="#FF0000" />
  <circle cx="3" cy="2" r="1" fill="#FF0000" />
  <circle cx="3" cy="2" r="1" fill="#FF0000" />
  <circle cx="10" cy="2" r="1" fill="#FF0000" />
  <circle cx="10" cy="2" r="1" fill="#FF0000" />
  <circle cx="8" cy="6" r="1" fill="#FF0000" />
  <circle cx="8" cy="6" r="1" fill="#FF0000" />
  <circle cx="10" cy="7" r="1" fill="#FF0000" />
  <circle cx="10" cy="7" r="1" fill="#FF0000" />
  <circle cx="8" cy="8" r="1" fill="#FF0000" />
  <circle cx="8" cy="8" r="1" fill="#FF0000" />
  <circle cx="12" cy="9" r="1" fill="#FF0000" />
  <circle cx="12" cy="9" r="1" fill="#FF0000" />
  <circle cx="15" cy="9" r="1" fill="#FF0000" />
  <circle cx="15" cy="9" r="1" fill="#FF0000" />
  <circle cx="15" cy="7" r="1" fill="#FF0000" />
  <circle cx="15" cy="7" r="1" fill="#FF0000" />
  <circle cx="17" cy="6" r="1" fill="#FF0000" />
  <circle cx="17" cy="6" r="1" fill="#FF0000" />
  <circle cx="15" cy="3" r="1" fill="#FF0000" />
  <circle cx="15" cy="3" r="1" fill="#FF0000" />
  <circle cx="14" cy="2" r="1" fill="#FF0000" />
  <circle cx="14" cy="2" r="1" fill="#FF0000" />
  <circle cx="16" cy="2" r="1" fill="#FF0000" />
  <circle cx="16" cy="2" r="1" fill="#FF0000" />
  <circle cx="19" cy="2" r="1" fill="#FF0000" />
  <circle cx="19" cy="2" r="1" fill="#FF0000" />
  <circle cx="20" cy="5" r="1" fill="#FF0000" />
  <circle cx="20" cy="5" r="1" fill="#FF0000" />
  <circle cx="20" cy="9" r="1" fill="#FF0000" />
  <circle cx="20" cy="9" r="1" fill="#FF0000" />
</svg>