<svg width="20" height="18" viewBox="0 0 20 18" fill="none" xmlns="http://www.w3.org/2000/svg">
<g clip-path="url(#clip0_10_2)">
<path d="M17.5 6.5C17.7604 6.5 18.0046 6.54883 18.2324 6.64648C18.4603 6.74414 18.6589 6.8776 18.8281 7.04688C18.9974 7.21615 19.1309 7.41471 19.2285 7.64258C19.3262 7.87044 19.375 8.11458 19.375 8.375C19.375 8.63542 19.3262 8.87956 19.2285 9.10742C19.1309 9.33529 18.9974 9.53385 18.8281 9.70312C18.6589 9.8724 18.4603 10.0059 18.2324 10.1035C18.0046 10.2012 17.7604 10.25 17.5 10.25H14.375C14.2057 10.25 14.0592 10.1882 13.9355 10.0645L12.5 8.63867L11.5039 9.625L13.5645 11.6855C13.6882 11.8092 13.75 11.9557 13.75 12.125V15.875C13.75 16.1354 13.7012 16.3796 13.6035 16.6074C13.5059 16.8353 13.3724 17.0339 13.2031 17.2031C13.0339 17.3724 12.8353 17.5059 12.6074 17.6035C12.3796 17.7012 12.1354 17.75 11.875 17.75C11.6146 17.75 11.3704 17.7012 11.1426 17.6035C10.9147 17.5059 10.7161 17.3724 10.5469 17.2031C10.3776 17.0339 10.2441 16.8353 10.1465 16.6074C10.0488 16.3796 10 16.1354 10 15.875V13.6387L8.75 12.3887L7.31445 13.8145C7.19076 13.9382 7.04427 14 6.875 14H2.5C2.23958 14 1.99544 13.9512 1.76758 13.8535C1.53971 13.7559 1.34115 13.6224 1.17188 13.4531C1.0026 13.2839 0.869141 13.0853 0.771484 12.8574C0.673828 12.6296 0.625 12.3854 0.625 12.125C0.625 11.8646 0.673828 11.6204 0.771484 11.3926C0.869141 11.1647 1.0026 10.9661 1.17188 10.7969C1.34115 10.6276 1.53971 10.4941 1.76758 10.3965C1.99544 10.2988 2.23958 10.25 2.5 10.25H5.36133L6.14258 9.47852C5.79753 9.32878 5.52083 9.09766 5.3125 8.78516C5.10417 8.47266 5 8.1276 5 7.75V4C5 3.82422 5.03255 3.66146 5.09766 3.51172C5.16276 3.36198 5.25065 3.23177 5.36133 3.12109C5.47201 3.01042 5.60547 2.91927 5.76172 2.84766C5.91797 2.77604 6.08073 2.74349 6.25 2.75H11.25C11.25 2.40495 11.3151 2.08268 11.4453 1.7832C11.5755 1.48372 11.7546 1.2168 11.9824 0.982422C12.2103 0.748047 12.474 0.56901 12.7734 0.445312C13.0729 0.321615 13.3984 0.25651 13.75 0.25C14.0951 0.25 14.4173 0.315104 14.7168 0.445312C15.0163 0.575521 15.2832 0.754557 15.5176 0.982422C15.752 1.21029 15.931 1.47396 16.0547 1.77344C16.1784 2.07292 16.2435 2.39844 16.25 2.75C16.25 3.02344 16.2077 3.28385 16.123 3.53125C16.0384 3.77865 15.9212 4.00977 15.7715 4.22461C15.6217 4.43945 15.4395 4.62174 15.2246 4.77148C15.0098 4.92122 14.7721 5.04167 14.5117 5.13281L15.8887 6.5H17.5ZM13.75 1.5C13.5742 1.5 13.4115 1.53255 13.2617 1.59766C13.112 1.66276 12.9818 1.75065 12.8711 1.86133C12.7604 1.97201 12.6693 2.10547 12.5977 2.26172C12.526 2.41797 12.4935 2.58073 12.5 2.75C12.5 2.92578 12.5326 3.08854 12.5977 3.23828C12.6628 3.38802 12.7507 3.51823 12.8613 3.62891C12.972 3.73958 13.1055 3.83073 13.2617 3.90234C13.418 3.97396 13.5807 4.00651 13.75 4C13.9062 4 14.0592 3.9707 14.209 3.91211C14.3587 3.85352 14.4922 3.76888 14.6094 3.6582C14.7266 3.54753 14.821 3.42383 14.8926 3.28711C14.9642 3.15039 15 2.9974 15 2.82812C15 2.64583 14.9707 2.47331 14.9121 2.31055C14.8535 2.14779 14.7721 2.00781 14.668 1.89062C14.5638 1.77344 14.4303 1.67904 14.2676 1.60742C14.1048 1.53581 13.9323 1.5 13.75 1.5ZM17.5 9C17.6693 9 17.8158 8.93815 17.9395 8.81445C18.0632 8.69076 18.125 8.54427 18.125 8.375C18.125 8.16667 18.0664 8.01693 17.9492 7.92578C17.832 7.83464 17.6823 7.77604 17.5 7.75C17.3177 7.72396 17.1126 7.71745 16.8848 7.73047C16.6569 7.74349 16.4355 7.75651 16.2207 7.76953C16.0059 7.78255 15.8073 7.7793 15.625 7.75977C15.4427 7.74023 15.2962 7.67513 15.1855 7.56445L11.6113 4H6.25V7.75C6.25 7.91927 6.31185 8.06576 6.43555 8.18945C6.55924 8.31315 6.70573 8.375 6.875 8.375C7.11589 8.375 7.27865 8.30013 7.36328 8.15039C7.44792 8.00065 7.5 7.80534 7.51953 7.56445C7.53906 7.32357 7.53255 7.07292 7.5 6.8125C7.46745 6.55208 7.46094 6.30143 7.48047 6.06055C7.5 5.81966 7.54883 5.6276 7.62695 5.48438C7.70508 5.34115 7.87109 5.26302 8.125 5.25H10C10.1693 5.25 10.3158 5.31185 10.4395 5.43555C10.5632 5.55924 10.625 5.70573 10.625 5.875C10.625 6.04427 10.5632 6.19076 10.4395 6.31445C10.3158 6.43815 10.1693 6.5 10 6.5H8.75V8.375C8.75 8.54427 8.68815 8.69076 8.56445 8.81445L6.06445 11.3145C5.94076 11.4382 5.79427 11.5 5.625 11.5H2.5C2.33073 11.5 2.18424 11.5618 2.06055 11.6855C1.93685 11.8092 1.875 11.9557 1.875 12.125C1.875 12.2943 1.93685 12.4408 2.06055 12.5645C2.18424 12.6882 2.33073 12.75 2.5 12.75H6.61133L8.31055 11.0605C8.43424 10.9368 8.58073 10.875 8.75 10.875C8.91927 10.875 9.06576 10.9368 9.18945 11.0605L11.0645 12.9355C11.1882 13.0592 11.25 13.2057 11.25 13.375V15.875C11.25 16.0443 11.3118 16.1908 11.4355 16.3145C11.5592 16.4382 11.7057 16.5 11.875 16.5C12.0443 16.5 12.1908 16.4382 12.3145 16.3145C12.4382 16.1908 12.5 16.0443 12.5 15.875V12.3887L10.1855 10.0645C10.0618 9.94076 10 9.79427 10 9.625C10 9.45573 10.0618 9.30924 10.1855 9.18555L12.0605 7.31055C12.1842 7.18685 12.3307 7.125 12.5 7.125C12.6693 7.125 12.8158 7.18685 12.9395 7.31055L14.6387 9H17.5Z" fill="#E1E1E1"/>
</g>
<defs>
<clipPath id="clip0_10_2">
<rect width="20" height="18" fill="white"/>
</clipPath>
</defs>
</svg>
