<svg width="308" height="18" viewBox="0 0 308 18" fill="none" xmlns="http://www.w3.org/2000/svg">
  <path d="M3 4.8V16L8.09091 13.2L13.9091 16L19 13.2V2L13.9091 4.8L8.09091 2L3 4.8Z" stroke="black"
    stroke-opacity="0.45" stroke-linecap="round" stroke-linejoin="round" />
  <path d="M8 2V13" stroke="black" stroke-opacity="0.45" stroke-linecap="round" stroke-linejoin="round" />
  <path d="M14 5V16" stroke="black" stroke-opacity="0.45" stroke-linecap="round"
    stroke-linejoin="round" />
  <path
    d="M28.296 5.744V6.704C27.096 6.98 25.428 7.244 24.816 7.244C24.792 7.244 24.792 7.244 24.6 7.232L24.756 8.012C24.972 7.964 25.056 7.952 25.38 7.904C26.268 7.772 27.264 7.568 28.296 7.316C28.284 7.772 28.272 7.892 28.236 8.168H29.1C29.052 7.844 29.04 7.604 29.04 7.076V4.988C29.04 4.556 29.064 4.256 29.112 3.98H28.224C28.272 4.28 28.296 4.568 28.296 4.988V5.096H25.884C25.44 5.096 25.164 5.072 24.828 5.024V5.804C25.128 5.756 25.416 5.744 25.884 5.744H28.296ZM31.32 4.94C31.32 4.508 31.332 4.28 31.38 3.98H30.504C30.552 4.292 30.576 4.544 30.576 4.928V7.172C30.576 7.592 30.708 7.748 31.164 7.868C31.44 7.952 31.896 7.976 32.868 7.976C34.104 7.976 34.62 7.904 34.872 7.688C35.1 7.496 35.184 7.232 35.268 6.44C34.944 6.344 34.86 6.308 34.56 6.128C34.536 6.716 34.488 7.004 34.38 7.124C34.248 7.304 33.948 7.34 32.772 7.34C31.56 7.34 31.32 7.28 31.32 6.956V6.092C32.004 5.96 32.004 5.96 32.16 5.924C32.988 5.744 34.02 5.432 34.44 5.24C34.836 5.072 34.836 5.072 34.992 5.012L34.476 4.424C33.804 4.832 32.676 5.204 31.32 5.468V4.94ZM27.12 12.632H32.88V13.736C32.88 14 32.76 14.084 32.4 14.084C31.848 14.084 31.416 14.06 30.792 13.976C30.888 14.24 30.936 14.432 30.948 14.696C31.5 14.72 31.848 14.732 32.34 14.732C33.024 14.732 33.276 14.672 33.444 14.48C33.576 14.336 33.636 14.132 33.636 13.844V10.016C33.636 9.368 33.648 9.044 33.684 8.636C33.384 8.672 33.084 8.684 32.364 8.684H27.696C27.036 8.684 26.688 8.672 26.316 8.636C26.352 9.044 26.364 9.356 26.364 9.968V13.52C26.364 14.12 26.34 14.504 26.292 14.876H27.18C27.132 14.504 27.12 14.168 27.12 13.544V12.632ZM27.12 11.996V10.976H32.88V11.996H27.12ZM27.12 10.34V9.344H32.88V10.34H27.12ZM41.496 7.82V8.528H37.872C37.368 8.528 37.02 8.504 36.672 8.456V9.212C37.032 9.164 37.38 9.14 37.872 9.14H46.152C46.632 9.14 47.028 9.164 47.352 9.212V8.456C47.016 8.504 46.656 8.528 46.152 8.528H42.216V7.82H44.76C45.252 7.82 45.648 7.832 46.008 7.868C45.972 7.556 45.96 7.328 45.96 6.92V5.324C45.96 4.916 45.972 4.664 46.008 4.376C45.612 4.412 45.252 4.424 44.712 4.424H39.24C38.628 4.424 38.304 4.412 37.932 4.376C37.968 4.652 37.98 4.928 37.98 5.324V6.92C37.98 7.304 37.968 7.592 37.932 7.868C38.376 7.832 38.688 7.82 39.228 7.82H41.496ZM38.688 5.024H45.252V5.84H38.688V5.024ZM38.688 6.404H45.252V7.256H38.688V6.404ZM41.64 12.056V13.82C41.64 14.096 41.544 14.156 41.16 14.156C40.752 14.156 40.38 14.12 39.924 14.036C40.044 14.324 40.068 14.468 40.116 14.78C40.524 14.816 40.824 14.828 41.112 14.828C42.144 14.828 42.396 14.66 42.396 13.976V12.056H44.412C44.988 12.056 45.264 12.068 45.696 12.104C45.66 11.852 45.648 11.66 45.648 11.264V10.664C45.648 10.244 45.66 10.016 45.696 9.764C45.36 9.8 45 9.812 44.412 9.812H39.588C39 9.812 38.64 9.8 38.304 9.764C38.34 10.04 38.352 10.256 38.352 10.664V11.204C38.352 11.612 38.34 11.828 38.304 12.104C38.664 12.068 39.012 12.056 39.588 12.056H41.64ZM44.916 10.412V11.456H39.084V10.412H44.916ZM39.576 12.308C38.76 13.16 38.1 13.58 36.804 14.072C37.032 14.276 37.164 14.444 37.308 14.696C38.592 14.108 39.276 13.64 40.188 12.704L39.576 12.308ZM43.752 12.752C44.76 13.712 45.348 14.12 46.68 14.756C46.836 14.492 46.968 14.3 47.184 14.096C45.996 13.664 45.24 13.208 44.292 12.32L43.752 12.752ZM53.784 8.768L55.5 8.192V11.24C55.5 11.732 55.476 12.068 55.428 12.404H56.316C56.268 12.056 56.244 11.732 56.244 11.252V7.94L58.236 7.256C58.188 8.96 58.128 9.848 58.044 10.292C57.984 10.64 57.924 10.7 57.648 10.7C57.36 10.7 57.048 10.664 56.724 10.592C56.82 10.844 56.868 11.036 56.904 11.348C57.18 11.372 57.324 11.384 57.432 11.384C57.852 11.384 58.08 11.336 58.296 11.216C58.608 11.036 58.764 10.532 58.848 9.464C58.944 8.288 58.992 7.448 59.04 6.248C58.716 6.392 58.464 6.5 58.092 6.62L56.244 7.232V5.264C56.244 4.832 56.268 4.484 56.316 4.136H55.428C55.476 4.496 55.5 4.784 55.5 5.252V7.472L53.784 8.048V6.368C53.784 5.888 53.808 5.54 53.856 5.18H52.956C53.004 5.528 53.028 5.9 53.028 6.404V8.288L52.596 8.432C52.212 8.564 51.888 8.636 51.552 8.672L51.768 9.488C52.044 9.356 52.092 9.332 52.764 9.104L53.028 9.02V13.424C53.028 14.36 53.52 14.54 56.004 14.54C59.124 14.54 59.34 14.396 59.484 12.176C59.136 12.092 58.992 12.032 58.716 11.864C58.704 12.716 58.62 13.268 58.464 13.484C58.272 13.76 57.768 13.832 56.076 13.832C54.972 13.832 54.432 13.808 54.144 13.724C53.856 13.652 53.784 13.556 53.784 13.268V8.768ZM50.112 7.292H49.668C49.176 7.292 48.936 7.28 48.66 7.22V8.036C48.972 7.976 49.164 7.964 49.668 7.964H50.112V12.068C49.248 12.428 48.936 12.536 48.504 12.608L48.708 13.436C48.84 13.376 49.02 13.292 49.188 13.232C50.544 12.68 51.12 12.416 52.284 11.768L52.212 11.036C51.588 11.384 51.372 11.492 50.856 11.732V7.964H51.18C51.6 7.964 51.852 7.976 52.152 8.012V7.232C51.924 7.28 51.696 7.292 51.192 7.292H50.856V5.504C50.856 4.904 50.88 4.544 50.928 4.16H50.04C50.088 4.508 50.112 4.928 50.112 5.492V7.292ZM69.3 12.32C68.22 11.552 67.488 11.084 66.684 10.628C67.512 9.752 68.22 8.768 68.724 7.82C69.3 6.716 69.3 6.716 69.408 6.536L68.64 6.152C68.556 6.476 68.448 6.752 68.28 7.088C67.692 8.276 66.96 9.332 66.06 10.28C65.076 9.752 64.32 9.404 62.976 8.852L62.556 9.452C63.804 9.908 64.488 10.22 65.532 10.784C64.632 11.576 63.924 12.02 62.676 12.56C62.88 12.74 63.036 12.908 63.216 13.184C64.524 12.5 65.28 11.984 66.168 11.144C67.212 11.768 67.812 12.176 68.82 12.968L69.3 12.32ZM64.932 8.528C64.5 7.592 64.248 7.172 63.624 6.392L63.012 6.716C63.672 7.556 63.9 7.952 64.308 8.912L64.932 8.528ZM66.936 7.976C66.564 7.016 66.336 6.572 65.772 5.78L65.148 6.08C65.712 6.872 65.988 7.388 66.3 8.3L66.936 7.976ZM61.848 14.9V14.192H70.152V14.9H70.992C70.932 14.564 70.92 14.228 70.92 13.484V5.984C70.92 5.348 70.932 4.976 70.992 4.508C70.548 4.556 70.2 4.568 69.564 4.568H62.412C61.788 4.568 61.44 4.556 61.008 4.508C61.056 4.964 61.08 5.384 61.08 5.984V13.46C61.08 14.204 61.068 14.54 61.008 14.9H61.848ZM61.848 5.252H70.152V13.508H61.848V5.252ZM76.164 5.924C74.94 5.924 74.028 5.876 73.596 5.792L73.584 6.62C73.716 6.608 73.74 6.608 73.848 6.608C73.884 6.608 73.98 6.608 74.04 6.608C74.484 6.62 75.612 6.644 75.804 6.644C75.864 6.644 75.984 6.632 76.032 6.62C75.96 6.74 75.96 6.74 75.924 6.8C75.06 8.336 74.064 9.596 73.236 10.232L73.908 10.904C74.1 10.58 74.364 10.304 74.832 9.908C75.804 9.08 76.752 8.636 77.508 8.636C78.072 8.636 78.36 8.924 78.456 9.584C77.652 9.932 77.076 10.244 76.668 10.544C75.852 11.156 75.444 11.78 75.444 12.44C75.444 13.676 76.488 14.288 78.636 14.288C79.56 14.288 80.604 14.204 81.552 14.048C81.792 14.012 81.852 14 82.032 13.988L81.924 13.064C81.24 13.34 79.908 13.532 78.72 13.532C77.028 13.532 76.284 13.184 76.284 12.392C76.284 11.672 76.908 11.108 78.54 10.34C78.552 10.484 78.552 10.508 78.552 10.7C78.552 11.432 78.516 12.164 78.48 12.428L79.296 12.416C79.272 12.248 79.272 12.152 79.272 11.984C79.272 11.876 79.272 11.708 79.284 11.444C79.296 11.204 79.296 10.94 79.296 10.784C79.296 10.484 79.296 10.364 79.272 10.052C80.772 9.464 81.852 9.104 82.476 8.996L82.092 8.156C81.9 8.288 81.864 8.3 81.276 8.504C80.748 8.696 80.064 8.948 79.188 9.296C79.032 8.408 78.492 7.964 77.604 7.964C76.98 7.964 76.344 8.168 75.792 8.552C75.672 8.636 75.672 8.636 75.24 8.972C75.228 8.96 75.228 8.96 75.216 8.936C75.216 8.936 75.216 8.936 75.216 8.924C75.216 8.924 75.228 8.924 75.228 8.912C75.24 8.9 75.3 8.852 75.384 8.792C75.432 8.756 75.672 8.48 75.792 8.336C76.212 7.82 76.512 7.34 76.872 6.632C78.324 6.584 79.584 6.488 80.832 6.32C81.048 6.284 81.12 6.272 81.312 6.26L81.24 5.444C80.58 5.66 79.38 5.804 77.46 5.9C77.352 5.9 77.352 5.9 77.208 5.912C77.268 5.804 77.424 5.48 77.58 5.096C77.784 4.604 77.784 4.604 77.892 4.448L76.932 4.28C76.896 4.664 76.752 5.084 76.356 5.924H76.164ZM89.58 9.8V10.94H88.584C88.044 10.94 87.768 10.928 87.504 10.88V11.588C87.768 11.54 88.056 11.528 88.596 11.528H94.08C94.656 11.528 94.968 11.54 95.256 11.588V10.88C94.956 10.928 94.68 10.94 94.08 10.94H92.964V9.8H93.72C94.272 9.8 94.536 9.812 94.848 9.86V9.164C94.572 9.212 94.296 9.224 93.744 9.224H92.964C92.976 8.864 92.988 8.708 93.012 8.456H92.196C92.232 8.684 92.244 8.864 92.256 9.224H90.276C90.276 8.864 90.3 8.672 90.324 8.456H89.508C89.544 8.708 89.556 8.864 89.568 9.224H89.1C88.536 9.224 88.26 9.212 87.996 9.164V9.86C88.284 9.812 88.56 9.8 89.112 9.8H89.58ZM90.276 9.8H92.268V10.94H90.276V9.8ZM90.9 5.012C90.9 4.736 90.9 4.556 90.924 4.364C90.696 4.4 90.432 4.412 89.868 4.412H88.596C88.2 4.412 87.912 4.4 87.648 4.352V5.072C87.924 5.024 88.176 5.012 88.596 5.012H90.228V5.912H88.476C88.116 5.912 87.9 5.9 87.72 5.876C87.744 6.08 87.756 6.224 87.756 6.536V7.436C87.756 8.06 87.948 8.144 89.352 8.144C90.324 8.144 90.648 8.096 90.816 7.94C91.02 7.76 91.092 7.532 91.164 6.932C90.936 6.872 90.78 6.8 90.54 6.644C90.504 7.1 90.48 7.28 90.42 7.376C90.336 7.52 90.144 7.556 89.28 7.556C88.488 7.556 88.416 7.52 88.416 7.22V6.452H90.18C90.492 6.452 90.696 6.464 90.924 6.488C90.9 6.332 90.9 6.14 90.9 5.852V5.012ZM94.872 5.012C94.872 4.724 94.872 4.544 94.896 4.364C94.668 4.4 94.404 4.412 93.84 4.412H92.568C92.172 4.412 91.884 4.4 91.62 4.352V5.072C91.896 5.024 92.148 5.012 92.568 5.012H94.2V5.912H92.436C92.064 5.912 91.86 5.9 91.668 5.876C91.704 6.176 91.716 6.296 91.716 6.548V7.424C91.716 8.06 91.896 8.144 93.336 8.144C95.028 8.144 95.112 8.096 95.256 6.932C95.04 6.872 94.86 6.788 94.62 6.644C94.584 7.112 94.536 7.34 94.452 7.436C94.356 7.532 94.068 7.568 93.24 7.568C92.88 7.568 92.64 7.544 92.532 7.508C92.412 7.46 92.388 7.412 92.388 7.22V6.452H94.152C94.464 6.452 94.668 6.464 94.896 6.488C94.872 6.32 94.872 6.14 94.872 5.852V5.012ZM90.024 11.624C89.364 12.224 88.836 12.536 87.852 12.92C88.128 13.1 88.26 13.244 88.404 13.46C89.352 13.028 89.796 12.728 90.612 12.008L90.024 11.624ZM91.956 12.044C92.784 12.716 93.468 13.112 94.524 13.52C94.692 13.268 94.788 13.148 95.04 12.908C93.984 12.572 93.324 12.248 92.52 11.66L91.956 12.044ZM84.876 4.856C85.632 5.588 85.968 5.984 86.592 6.896L87.204 6.356C86.592 5.552 86.232 5.156 85.428 4.364L84.876 4.856ZM84.672 9.56C84.948 9.512 85.164 9.5 85.548 9.5H86.28V12.404C85.512 13.16 84.984 13.58 84.432 13.832L84.828 14.624C84.996 14.468 84.996 14.468 85.212 14.288C85.632 13.94 85.632 13.94 85.776 13.82C86.052 13.58 86.256 13.376 86.616 13.004C86.976 13.544 87.372 13.916 87.864 14.156C88.584 14.492 89.208 14.564 91.308 14.564C92.76 14.564 94.104 14.54 95.34 14.48C95.424 14.072 95.448 14 95.616 13.616C94.356 13.784 93.012 13.856 90.78 13.856C89.364 13.856 88.656 13.76 88.056 13.496C87.564 13.268 87.312 13.016 87.024 12.404V10.04C87.024 9.416 87.024 9.176 87.072 8.78C86.76 8.828 86.532 8.84 86.16 8.84H85.596C85.152 8.84 84.96 8.828 84.672 8.78V9.56ZM99.348 5.396C99.516 5.444 99.528 5.444 99.744 5.528C100.884 5.984 101.916 6.236 102.84 6.296C102.576 6.404 102.372 6.524 102.072 6.74C101.292 7.328 100.884 7.94 100.884 8.576C100.884 9.08 101.088 9.5 101.568 10.028C102.36 10.904 102.36 10.904 102.564 11.216C102.816 11.564 102.936 11.912 102.936 12.224C102.936 12.884 102.36 13.376 101.616 13.376C100.92 13.376 100.236 13.028 99.552 12.344C99.456 12.812 99.42 12.932 99.3 13.196C100.128 13.904 100.848 14.204 101.688 14.204C102.936 14.204 103.836 13.376 103.836 12.26C103.836 11.576 103.512 10.94 102.732 10.112C101.928 9.26 101.928 9.26 101.784 9.02C101.712 8.888 101.652 8.684 101.652 8.552C101.652 8 102.156 7.412 103.092 6.86C103.476 6.644 103.704 6.548 103.992 6.5L104.004 5.648C103.92 5.66 103.86 5.66 103.824 5.66C103.176 5.66 101.82 5.432 101.052 5.192C100.452 5 99.972 4.808 99.708 4.616L99.348 5.396ZM98.364 9.332C98.112 10.712 97.428 12.296 96.708 13.184C97.056 13.364 97.2 13.46 97.44 13.688C98.172 12.572 98.58 11.648 99.024 10.136C99.084 9.944 99.12 9.812 99.132 9.764C99.144 9.74 99.168 9.668 99.192 9.596L98.364 9.332ZM104.484 9.572C105.156 10.232 106.188 12.272 106.476 13.484L107.256 13.076C106.716 11.504 106.14 10.424 105.216 9.224L104.484 9.572ZM104.7 5.888C105.048 6.26 105.624 7.16 105.924 7.796L106.524 7.436C106.164 6.728 105.828 6.224 105.3 5.576L104.7 5.888ZM106.056 5.252C106.524 5.792 107.028 6.56 107.292 7.136L107.892 6.788C107.496 6.032 107.196 5.588 106.644 4.916L106.056 5.252Z"
    fill="black" fill-opacity="0.45" />
</svg>