<svg width="16" height="16" viewBox="0 0 16 16" fill="none" xmlns="http://www.w3.org/2000/svg">
<path fill-rule="evenodd" clip-rule="evenodd" d="M2.83331 14.5002C2.83331 14.132 3.13179 13.8335 3.49998 13.8335H12.5C12.8682 13.8335 13.1666 14.132 13.1666 14.5002C13.1666 14.8684 12.8682 15.1668 12.5 15.1668H3.49998C3.13179 15.1668 2.83331 14.8684 2.83331 14.5002Z" fill="#BFBFBF"/>
<path fill-rule="evenodd" clip-rule="evenodd" d="M7.99998 5.16683C7.2636 5.16683 6.66665 5.76378 6.66665 6.50016C6.66665 7.23654 7.2636 7.8335 7.99998 7.8335C8.73636 7.8335 9.33331 7.23654 9.33331 6.50016C9.33331 5.76378 8.73636 5.16683 7.99998 5.16683ZM5.33331 6.50016C5.33331 5.0274 6.52722 3.8335 7.99998 3.8335C9.47274 3.8335 10.6666 5.0274 10.6666 6.50016C10.6666 7.97292 9.47274 9.16683 7.99998 9.16683C6.52722 9.16683 5.33331 7.97292 5.33331 6.50016Z" fill="#BFBFBF"/>
<path fill-rule="evenodd" clip-rule="evenodd" d="M7.99998 2.16683C6.85071 2.16683 5.74851 2.62338 4.93585 3.43603C4.12319 4.24869 3.66665 5.35089 3.66665 6.50016C3.66665 8.51013 4.79121 10.3566 6.00305 11.7502C6.60083 12.4377 7.20031 12.9924 7.6505 13.375C7.78127 13.4862 7.89903 13.5825 7.99998 13.6629C8.10093 13.5825 8.21869 13.4862 8.34946 13.375C8.79965 12.9924 9.39913 12.4377 9.99691 11.7502C11.2087 10.3566 12.3333 8.51013 12.3333 6.50016C12.3333 5.35089 11.8768 4.24869 11.0641 3.43603C10.2515 2.62338 9.14925 2.16683 7.99998 2.16683ZM7.99998 14.5002C7.61767 15.0463 7.61749 15.0462 7.61729 15.0461L7.61547 15.0448L7.61144 15.0419L7.59806 15.0324C7.58681 15.0244 7.57094 15.0129 7.55075 14.9982C7.51039 14.9688 7.45276 14.926 7.38031 14.8707C7.23548 14.76 7.03109 14.5984 6.78696 14.3909C6.29965 13.9767 5.64913 13.3752 4.99691 12.6251C3.70875 11.1437 2.33331 8.9902 2.33331 6.50016C2.33331 4.99727 2.93034 3.55593 3.99304 2.49322C5.05575 1.43052 6.49709 0.833496 7.99998 0.833496C9.50287 0.833496 10.9442 1.43052 12.0069 2.49322C13.0696 3.55593 13.6666 4.99727 13.6666 6.50016C13.6666 8.9902 12.2912 11.1437 11.003 12.6251C10.3508 13.3752 9.70031 13.9767 9.213 14.3909C8.96887 14.5984 8.76448 14.76 8.61965 14.8707C8.5472 14.926 8.48957 14.9688 8.44921 14.9982C8.42902 15.0129 8.41315 15.0244 8.4019 15.0324L8.38852 15.0419L8.38449 15.0448L8.38316 15.0457C8.38296 15.0458 8.38229 15.0463 7.99998 14.5002ZM7.99998 14.5002L8.38229 15.0463C8.15274 15.207 7.84684 15.2067 7.61729 15.0461L7.99998 14.5002Z" fill="#BFBFBF"/>
</svg>
